if (_typeface_js && _typeface_js.loadFace) _typeface_js.loadFace({"glyphs":{"S":{"x_min":83,"x_max":675,"ha":757,"o":"m 207 299 l 207 269 q 221 184 207 218 q 259 129 235 149 q 312 99 283 108 q 371 90 341 90 q 440 98 408 90 q 496 126 473 106 q 533 176 519 145 q 547 252 547 208 q 514 345 547 308 q 432 413 481 383 q 326 472 383 444 q 220 537 269 499 q 138 625 171 574 q 106 751 106 676 q 127 868 106 817 q 187 953 149 918 q 279 1005 226 988 q 392 1023 332 1023 q 597 952 526 1023 q 669 730 669 882 l 536 730 q 504 861 536 811 q 384 912 472 912 q 329 904 355 912 q 281 879 303 896 q 246 833 259 862 q 234 764 234 805 q 266 672 234 709 q 348 606 299 635 q 454 547 397 576 q 560 481 511 519 q 642 390 609 444 q 675 257 675 337 q 649 124 675 178 q 583 38 624 71 q 486 -8 541 5 q 370 -22 431 -22 q 247 -4 297 -22 q 165 39 198 12 q 115 102 133 66 q 90 173 98 137 q 83 242 83 208 q 83 299 83 275 l 207 299 "},"¦":{"x_min":128,"x_max":212,"ha":340,"o":"m 212 937 l 212 451 l 128 451 l 128 937 l 212 937 m 212 243 l 212 -243 l 128 -243 l 128 243 l 212 243 "},"/":{"x_min":-32.671875,"x_max":378.390625,"ha":378,"o":"m 58 -133 l -32 -133 l 287 1003 l 378 1003 l 58 -133 "},"y":{"x_min":10.890625,"x_max":593.4375,"ha":604,"o":"m 304 131 l 307 131 l 472 701 l 593 701 l 281 -265 l 166 -265 l 243 0 l 10 701 l 140 701 l 304 131 "},"Ž":{"x_min":33,"x_max":647,"ha":681,"o":"m 539 1303 l 402 1108 l 277 1108 l 141 1303 l 250 1303 l 340 1173 l 430 1303 l 539 1303 m 636 874 l 148 111 l 647 111 l 647 0 l 33 0 l 33 144 l 509 888 l 509 891 l 49 891 l 49 1002 l 636 1002 l 636 874 "},"Á":{"x_min":20.421875,"x_max":811.21875,"ha":832,"o":"m 578 1303 l 400 1108 l 308 1108 l 430 1303 l 578 1303 m 408 885 l 405 885 l 251 350 l 566 350 l 408 885 m 332 1002 l 491 1002 l 811 0 l 671 0 l 600 239 l 220 239 l 147 0 l 20 0 l 332 1002 "},"g":{"x_min":83,"x_max":573,"ha":681,"o":"m 463 354 q 463 439 463 392 q 451 526 463 486 q 411 593 439 566 q 330 621 384 621 q 254 595 281 621 q 215 531 227 569 q 203 449 203 493 q 203 372 203 406 q 211 233 203 287 q 238 148 220 180 q 280 105 255 117 q 335 94 304 94 q 412 121 385 94 q 450 187 438 148 q 463 272 463 227 q 463 354 463 317 m 461 701 l 573 701 l 573 -70 q 554 -167 573 -128 q 502 -226 536 -205 q 423 -256 469 -248 q 319 -265 377 -265 q 237 -253 276 -265 q 169 -219 198 -242 q 123 -161 140 -197 q 111 -78 107 -126 l 237 -78 q 265 -152 237 -126 q 341 -179 294 -179 q 430 -145 400 -179 q 461 -58 461 -112 l 461 88 l 457 88 q 393 23 435 46 q 306 0 351 0 q 193 29 236 0 q 125 108 149 58 q 91 226 100 158 q 83 372 83 294 q 108 561 83 492 q 169 664 134 630 q 240 706 204 698 q 298 715 277 715 q 394 690 352 715 q 458 615 435 666 l 461 615 l 461 701 "},"²":{"x_min":18,"x_max":349,"ha":363,"o":"m 18 392 l 18 466 q 129 606 84 551 q 201 699 174 661 q 240 767 229 737 q 251 831 251 797 q 232 880 251 860 q 174 901 214 901 q 127 872 139 901 q 116 814 116 844 l 20 814 q 26 877 17 847 q 52 929 34 906 q 100 965 71 952 q 169 979 129 979 q 304 942 262 979 q 346 827 346 906 q 333 743 346 779 q 293 669 320 707 q 225 584 265 632 q 129 466 184 536 l 349 466 l 349 392 l 18 392 "},"–":{"x_min":0,"x_max":681,"ha":681,"o":"m 0 415 l 681 415 l 681 337 l 0 337 l 0 415 "},"ë":{"x_min":87,"x_max":593,"ha":680,"o":"m 524 819 l 396 819 l 396 963 l 524 963 l 524 819 m 284 819 l 156 819 l 156 963 l 284 963 l 284 819 m 475 400 q 464 521 475 476 q 436 590 454 566 q 393 622 419 615 q 337 629 367 629 q 287 620 310 629 q 246 587 264 612 q 217 517 228 562 q 207 400 207 472 l 475 400 m 207 314 q 216 194 207 240 q 243 122 226 148 q 287 88 261 97 q 345 79 313 79 q 396 90 374 79 q 432 119 417 101 q 455 161 447 137 q 464 212 464 185 l 587 212 q 522 40 587 94 q 348 -14 457 -14 q 246 -2 294 -14 q 163 47 198 9 q 107 154 127 84 q 87 340 87 223 q 94 485 87 416 q 128 604 101 553 q 206 685 155 655 q 348 715 258 715 q 469 694 421 715 q 544 631 516 673 q 582 524 571 588 q 593 373 593 461 l 593 314 l 207 314 "},"ƒ":{"x_min":46.28125,"x_max":558.0625,"ha":604,"o":"m 61 -146 q 118 -135 98 -146 q 149 -105 138 -125 q 164 -60 159 -86 q 172 -5 168 -35 l 255 543 l 132 543 l 147 629 l 268 629 l 285 740 q 300 812 289 770 q 333 890 310 854 q 395 953 356 927 q 498 979 434 979 q 528 976 513 979 q 558 973 543 974 l 543 880 q 529 883 539 881 q 509 885 519 885 q 458 872 479 885 q 426 838 438 858 q 407 797 413 817 q 400 763 401 776 l 378 629 l 511 629 l 499 543 l 366 543 l 274 -68 q 240 -166 265 -131 q 183 -219 216 -202 q 115 -236 151 -236 q 46 -236 78 -236 l 61 -146 "},"Î":{"x_min":-9.109375,"x_max":388.109375,"ha":379,"o":"m 189 1238 l 99 1108 l -9 1108 l 127 1303 l 252 1303 l 388 1108 l 279 1108 l 189 1238 m 252 0 l 127 0 l 127 1002 l 252 1002 l 252 0 "},"e":{"x_min":87,"x_max":593,"ha":680,"o":"m 475 400 q 464 521 475 476 q 436 590 454 566 q 393 622 419 615 q 337 629 367 629 q 287 620 310 629 q 246 587 264 612 q 217 517 228 562 q 207 400 207 472 l 475 400 m 207 314 q 216 194 207 240 q 243 122 226 148 q 287 88 261 97 q 345 79 313 79 q 396 90 374 79 q 432 119 417 101 q 455 161 447 137 q 464 212 464 185 l 587 212 q 522 40 587 94 q 348 -14 457 -14 q 246 -2 294 -14 q 163 47 198 9 q 107 154 127 84 q 87 340 87 223 q 94 485 87 416 q 128 604 101 553 q 206 685 155 655 q 348 715 258 715 q 469 694 421 715 q 544 631 516 673 q 582 524 571 588 q 593 373 593 461 l 593 314 l 207 314 "},"Ã":{"x_min":20.421875,"x_max":811.21875,"ha":832,"o":"m 647 1264 q 634 1208 645 1235 q 605 1159 623 1180 q 563 1126 588 1138 q 506 1114 539 1114 q 458 1122 483 1114 q 408 1140 434 1130 q 357 1159 382 1151 q 310 1167 333 1167 q 268 1147 287 1167 q 247 1104 250 1127 l 185 1104 q 225 1210 191 1167 q 326 1254 258 1254 q 379 1246 353 1254 q 428 1229 405 1238 q 472 1210 451 1218 q 509 1203 492 1203 q 578 1264 573 1203 l 647 1264 m 408 885 l 405 885 l 251 350 l 566 350 l 408 885 m 332 1002 l 491 1002 l 811 0 l 671 0 l 600 239 l 220 239 l 147 0 l 20 0 l 332 1002 "},"J":{"x_min":45,"x_max":557,"ha":681,"o":"m 173 311 q 173 238 173 277 q 183 164 173 198 q 218 108 193 130 q 292 86 243 86 q 371 106 343 86 q 414 159 399 126 q 429 236 429 192 q 429 324 429 279 l 429 1002 l 557 1002 l 557 248 q 557 209 557 234 q 549 154 557 184 q 525 93 541 124 q 477 36 508 62 q 399 -5 446 10 q 285 -21 352 -21 q 236 -16 264 -21 q 178 -1 207 -12 q 120 29 148 9 q 75 77 93 48 q 45 188 45 127 q 45 311 45 249 l 173 311 "},"»":{"x_min":98,"x_max":562.140625,"ha":604,"o":"m 333 107 l 439 374 l 332 647 l 435 647 l 562 374 l 439 107 l 333 107 m 99 107 l 205 374 l 98 647 l 201 647 l 328 374 l 205 107 l 99 107 "},"©":{"x_min":33,"x_max":1056,"ha":1089,"o":"m 432 429 q 440 357 432 385 q 462 314 448 329 q 497 293 476 299 q 542 287 517 287 q 624 319 602 287 q 646 400 646 351 l 744 400 q 697 262 744 316 q 554 209 650 209 q 515 209 537 209 q 468 214 493 209 q 421 234 444 220 q 379 274 398 248 q 348 342 360 300 q 337 447 337 384 l 337 587 q 346 683 337 639 q 380 758 355 727 q 445 807 404 789 q 548 826 486 826 q 690 782 647 826 q 734 648 734 738 l 637 648 q 626 708 637 687 q 602 737 616 728 q 571 747 588 747 q 543 747 555 747 q 461 721 491 747 q 432 626 432 695 l 432 429 m 545 945 q 375 910 454 945 q 236 815 295 875 q 143 673 177 754 q 109 501 109 592 q 143 327 109 408 q 236 186 177 247 q 375 91 295 126 q 545 57 454 57 q 715 91 637 57 q 853 186 794 126 q 945 327 911 247 q 980 501 980 408 q 945 673 980 592 q 853 815 911 754 q 715 910 794 875 q 545 945 637 945 m 545 1023 q 744 982 651 1023 q 906 870 836 941 q 1015 705 975 800 q 1056 502 1056 610 q 1015 297 1056 392 q 906 131 975 202 q 744 19 836 60 q 545 -21 651 -21 q 346 19 439 -21 q 183 131 253 60 q 73 297 113 202 q 33 502 33 392 q 73 705 33 610 q 183 870 113 800 q 346 982 253 941 q 545 1023 439 1023 "},"˘":{"x_min":-18,"x_max":398.5,"ha":378,"o":"m 45 1002 q 95 918 56 944 q 188 893 134 893 q 282 918 246 893 q 331 1002 319 944 l 398 1002 q 334 864 387 913 q 190 815 281 815 q 39 857 96 815 q -18 1002 -18 900 l 45 1002 "},"ò":{"x_min":79,"x_max":602,"ha":681,"o":"m 326 1002 l 448 807 l 356 807 l 178 1002 l 326 1002 m 340 79 q 412 95 384 79 q 456 148 439 112 q 478 243 472 184 q 484 388 484 302 q 474 506 484 460 q 445 576 464 551 q 399 612 426 602 q 340 621 373 621 q 281 612 307 621 q 235 576 254 602 q 206 506 216 551 q 196 388 196 460 q 202 243 196 302 q 224 148 208 184 q 268 95 241 112 q 340 79 296 79 m 340 -14 q 238 -2 286 -14 q 155 47 190 9 q 99 154 119 84 q 79 340 79 223 q 86 485 79 416 q 120 604 94 553 q 198 685 147 655 q 340 715 250 715 q 482 685 430 715 q 560 604 533 655 q 594 485 587 553 q 602 340 602 416 q 581 154 602 223 q 525 47 561 84 q 442 -2 490 9 q 340 -14 394 -14 "},"^":{"x_min":89.828125,"x_max":589.359375,"ha":681,"o":"m 377 964 l 589 385 l 487 385 l 334 826 l 332 826 l 182 385 l 89 385 l 295 964 l 377 964 "},"«":{"x_min":42.1875,"x_max":506.328125,"ha":604,"o":"m 276 374 l 402 647 l 506 647 l 398 374 l 504 107 l 398 107 l 276 374 m 42 374 l 168 647 l 272 647 l 164 374 l 270 107 l 164 107 l 42 374 "},"D":{"x_min":113,"x_max":722,"ha":832,"o":"m 238 111 l 356 111 q 467 124 421 111 q 541 173 513 138 q 582 265 569 208 q 595 410 595 323 l 595 613 q 547 827 595 764 q 402 891 500 891 l 238 891 l 238 111 m 113 1002 l 416 1002 q 577 965 510 1002 q 681 849 644 929 q 704 768 696 817 q 717 671 713 720 q 722 584 722 623 q 722 532 722 545 q 708 275 722 371 q 663 129 694 179 q 546 31 623 63 q 339 0 468 0 l 113 0 l 113 1002 "},"∙":{"x_min":87,"x_max":215,"ha":302,"o":"m 215 279 l 87 279 l 87 423 l 215 423 l 215 279 "},"ł":{"x_min":-39.75,"x_max":341.75,"ha":302,"o":"m 207 650 l 314 714 l 341 666 l 207 587 l 207 0 l 95 0 l 95 521 l -12 457 l -39 506 l 95 585 l 95 1002 l 207 1002 l 207 650 "},"ÿ":{"x_min":10.46875,"x_max":593.515625,"ha":604,"o":"m 246 819 l 118 819 l 118 963 l 246 963 l 246 819 m 486 819 l 358 819 l 358 963 l 486 963 l 486 819 m 304 131 l 307 131 l 472 701 l 593 701 l 281 -265 l 165 -265 l 243 0 l 10 701 l 139 701 l 304 131 "},"Ł":{"x_min":-16.578125,"x_max":595.703125,"ha":604,"o":"m 110 509 l 13 452 l -16 506 l 110 581 l 110 1002 l 235 1002 l 235 655 l 337 714 l 367 660 l 235 583 l 235 111 l 595 111 l 595 0 l 110 0 l 110 509 "},"í":{"x_min":43.28125,"x_max":313.171875,"ha":302,"o":"m 313 1002 l 134 807 l 43 807 l 164 1002 l 313 1002 m 95 0 l 95 701 l 207 701 l 207 0 l 95 0 "},"ˆ":{"x_min":-9.53125,"x_max":387.921875,"ha":378,"o":"m 189 937 l 99 807 l -9 807 l 126 1003 l 251 1003 l 387 807 l 279 807 l 189 937 "},"w":{"x_min":12.25,"x_max":970.46875,"ha":983,"o":"m 12 701 l 136 701 l 259 97 l 262 97 l 415 701 l 573 701 l 713 97 l 715 97 l 852 701 l 970 701 l 786 0 l 637 0 l 490 597 l 487 597 l 333 0 l 183 0 l 12 701 "},"$":{"x_min":4,"x_max":599,"ha":604,"o":"m 272 867 q 189 825 221 860 q 158 731 158 789 q 190 638 158 673 q 272 577 223 603 l 272 867 m 331 89 q 431 135 392 96 q 471 241 471 174 q 460 296 471 271 q 429 339 449 320 q 384 376 409 359 q 331 409 359 394 l 331 89 m 331 -103 l 272 -103 l 272 -21 q 151 0 200 -21 q 73 55 103 22 q 29 127 43 88 q 9 201 14 166 q 4 261 4 236 q 6 293 4 287 l 135 293 q 142 219 135 255 q 166 155 149 183 q 208 109 182 127 q 272 91 234 91 l 272 439 q 185 486 228 462 q 106 542 141 510 q 51 616 72 574 q 30 717 30 659 q 48 823 30 775 q 99 905 66 871 q 176 958 132 939 q 272 978 220 978 l 272 1060 l 331 1060 l 331 979 q 531 905 466 979 q 597 695 597 831 l 460 695 q 432 818 460 771 q 331 865 404 865 l 331 546 q 424 500 377 524 q 511 442 472 475 q 574 361 550 409 q 599 245 599 313 q 573 122 599 173 q 509 40 548 72 q 422 -6 469 8 q 331 -20 375 -20 l 331 -103 "},"\\":{"x_min":-1.359375,"x_max":378.390625,"ha":378,"o":"m -1 1002 l 89 1002 l 378 -21 l 287 -21 l -1 1002 "},"Ì":{"x_min":27.640625,"x_max":296.90625,"ha":379,"o":"m 175 1303 l 296 1108 l 205 1108 l 27 1303 l 175 1303 m 252 0 l 127 0 l 127 1002 l 252 1002 l 252 0 "},"µ":{"x_min":102,"x_max":580,"ha":681,"o":"m 466 85 l 461 85 q 388 11 434 36 q 287 -13 342 -13 q 245 -8 269 -13 q 214 0 220 -3 l 214 -265 l 102 -265 l 102 701 l 214 701 l 214 215 q 242 112 214 151 q 331 74 271 74 q 377 83 352 74 q 421 111 401 92 q 453 161 440 130 q 466 236 466 191 l 466 701 l 580 701 l 580 146 q 580 73 580 109 q 580 0 580 36 l 466 0 l 466 85 "},"Ç":{"x_min":99,"x_max":687,"ha":756,"o":"m 543 726 q 538 808 543 769 q 513 871 533 848 q 489 892 504 884 q 458 905 474 899 q 428 912 443 910 q 403 915 413 915 q 337 904 364 915 q 292 880 309 894 q 265 855 274 867 q 255 837 256 842 q 249 824 254 833 q 239 793 244 815 q 231 732 235 772 q 227 629 227 692 l 227 361 q 240 214 227 269 q 278 131 254 159 q 333 94 301 102 q 402 86 365 86 q 442 91 416 86 q 493 118 468 97 q 538 180 519 138 q 558 296 558 222 l 687 296 q 672 163 687 217 q 632 73 657 109 q 577 18 608 38 q 515 -10 546 -1 q 458 -19 485 -19 q 413 -19 431 -19 l 365 -82 l 368 -85 q 387 -79 376 -82 q 409 -77 398 -77 q 488 -104 455 -77 q 522 -182 522 -131 q 507 -243 522 -218 q 469 -282 492 -267 q 418 -305 447 -298 q 364 -312 390 -312 q 291 -302 326 -312 q 229 -281 256 -292 l 252 -226 q 296 -240 276 -234 q 341 -247 316 -247 q 367 -244 353 -247 q 393 -235 382 -241 q 411 -217 404 -228 q 419 -191 419 -206 q 399 -147 419 -161 q 352 -134 379 -134 q 325 -138 338 -134 q 300 -145 312 -142 l 277 -118 l 349 -16 q 261 0 305 -16 q 181 57 217 15 q 122 175 145 99 q 99 375 99 252 l 99 659 q 121 834 99 764 q 183 946 143 904 q 282 1005 224 988 q 411 1023 340 1023 q 616 947 556 1023 q 676 726 676 871 l 543 726 "},"’":{"x_min":47.640625,"x_max":253.171875,"ha":302,"o":"m 106 1002 l 253 1002 l 141 726 l 47 726 l 106 1002 "},"-":{"x_min":76,"x_max":375,"ha":453,"o":"m 76 432 l 375 432 l 375 325 l 76 325 l 76 432 "},"Q":{"x_min":98,"x_max":817,"ha":832,"o":"m 408 102 q 498 118 462 102 q 553 168 533 135 q 580 249 573 202 q 588 360 588 297 l 588 699 q 565 822 588 778 q 512 886 543 865 q 451 911 481 907 q 407 916 421 916 q 362 911 392 916 q 301 886 332 907 q 248 822 270 865 q 226 699 226 778 l 226 360 q 233 249 226 297 q 261 168 240 202 q 317 118 281 135 q 408 102 352 102 m 98 694 q 174 933 98 844 q 406 1023 250 1023 q 639 934 563 1023 q 716 695 716 845 l 716 365 q 710 295 716 338 q 694 211 705 253 q 666 134 683 168 q 630 90 650 100 l 632 88 q 651 93 639 89 q 675 101 662 97 q 699 107 687 104 q 718 110 710 110 l 817 110 l 817 1 l 408 1 q 339 1 375 1 q 268 12 303 1 q 202 46 234 23 q 148 109 171 69 q 111 211 125 149 q 98 364 98 273 l 98 694 "},"M":{"x_min":112,"x_max":1022,"ha":1134,"o":"m 229 0 l 112 0 l 112 1002 l 314 1002 l 562 161 l 565 161 l 815 1002 l 1022 1002 l 1022 0 l 897 0 l 897 891 l 894 891 l 619 0 l 501 0 l 231 891 l 229 891 l 229 0 "},"C":{"x_min":99,"x_max":687,"ha":756,"o":"m 543 727 q 538 809 543 770 q 514 872 533 849 q 489 893 504 885 q 459 906 474 900 q 428 913 443 911 q 404 916 413 916 q 337 905 364 916 q 292 881 310 895 q 265 856 274 868 q 255 838 256 843 q 249 825 254 834 q 239 794 244 816 q 231 733 235 773 q 227 629 227 693 l 227 361 q 240 215 227 270 q 278 132 254 160 q 333 95 301 103 q 402 87 365 87 q 442 92 416 87 q 493 118 468 98 q 538 181 519 139 q 558 296 558 222 l 687 296 q 671 162 687 216 q 630 72 655 107 q 573 17 605 36 q 510 -9 541 0 q 452 -19 479 -19 q 408 -19 424 -19 q 308 -11 362 -19 q 208 33 255 -3 q 130 151 161 71 q 99 377 99 232 l 99 660 q 121 836 99 766 q 183 947 143 906 q 282 1006 224 989 q 411 1024 340 1024 q 616 948 556 1024 q 676 727 676 872 l 543 727 "},"œ":{"x_min":79,"x_max":984,"ha":1059,"o":"m 866 400 q 855 520 866 476 q 827 587 845 565 q 784 615 810 609 q 728 621 758 621 q 678 614 701 621 q 637 583 655 606 q 608 516 619 560 q 598 400 598 472 l 866 400 m 340 79 q 412 95 384 79 q 456 148 440 112 q 478 243 472 184 q 485 388 485 302 q 474 506 485 460 q 445 576 464 551 q 399 612 426 602 q 340 621 373 621 q 281 612 307 621 q 235 576 254 602 q 206 506 216 551 q 196 388 196 460 q 202 243 196 302 q 224 148 208 184 q 268 95 241 112 q 340 79 296 79 m 598 314 q 607 194 598 240 q 634 122 617 148 q 678 88 652 97 q 736 79 704 79 q 787 90 765 79 q 823 119 808 101 q 846 161 838 137 q 855 212 855 185 l 978 212 q 913 40 978 94 q 739 -14 848 -14 q 674 -9 706 -14 q 615 6 642 -5 q 565 40 587 19 q 531 97 543 62 q 449 8 497 31 q 340 -14 401 -14 q 238 -2 286 -14 q 155 47 190 9 q 99 154 119 84 q 79 340 79 223 q 86 485 79 416 q 120 604 94 553 q 198 685 147 655 q 340 715 250 715 q 403 709 370 715 q 463 690 435 703 q 511 655 491 677 q 536 598 531 633 l 539 598 q 612 687 562 660 q 739 715 661 715 q 860 694 812 715 q 935 631 907 673 q 973 524 962 588 q 984 373 984 461 l 984 314 l 598 314 "},"!":{"x_min":163,"x_max":291,"ha":453,"o":"m 291 0 l 163 0 l 163 144 l 291 144 l 291 0 m 164 232 l 164 1003 l 287 1003 l 287 232 l 164 232 "},"ç":{"x_min":101,"x_max":579,"ha":681,"o":"m 458 477 q 449 548 458 519 q 426 592 440 576 q 394 615 411 609 q 361 622 378 622 q 302 612 329 622 q 257 576 276 602 q 228 506 238 551 q 218 389 218 461 q 224 244 218 303 q 246 149 230 185 q 290 96 262 113 q 361 80 318 80 q 388 86 371 80 q 422 109 406 92 q 450 157 438 127 q 461 234 461 186 l 579 234 q 559 118 579 164 q 510 45 539 72 q 445 4 480 17 q 382 -11 410 -8 l 328 -82 l 331 -85 q 350 -79 339 -82 q 372 -77 361 -77 q 451 -104 418 -77 q 485 -182 485 -131 q 470 -243 485 -218 q 432 -282 455 -267 q 381 -305 410 -298 q 327 -312 352 -312 q 254 -302 288 -312 q 192 -281 219 -292 l 215 -226 q 259 -240 238 -234 q 304 -247 279 -247 q 330 -244 316 -247 q 356 -235 345 -241 q 374 -217 366 -228 q 382 -191 382 -206 q 362 -147 382 -161 q 315 -134 342 -134 q 288 -138 301 -134 q 263 -145 275 -142 l 239 -118 l 317 -11 q 231 9 271 -7 q 163 65 192 25 q 117 170 133 104 q 101 340 101 236 q 108 485 101 416 q 142 604 115 554 q 220 685 168 655 q 360 715 271 715 q 519 654 463 715 q 576 477 576 594 l 458 477 "},"È":{"x_min":110,"x_max":624.28125,"ha":680,"o":"m 326 1303 l 447 1108 l 356 1108 l 177 1303 l 326 1303 m 110 0 l 110 1002 l 616 1002 l 616 891 l 235 891 l 235 569 l 588 569 l 588 458 l 235 458 l 235 111 l 624 111 l 624 0 l 110 0 "},"ﬁ":{"x_min":12,"x_max":582,"ha":680,"o":"m 457 1002 l 582 1002 l 582 880 l 457 880 l 457 1002 m 576 0 l 464 0 l 464 701 l 576 701 l 576 0 m 118 701 l 118 836 q 135 922 118 889 q 179 974 152 955 q 242 998 206 992 q 315 1005 278 1005 q 345 1005 333 1005 q 369 1002 356 1005 l 369 922 q 296 915 324 922 q 254 893 269 908 q 234 859 239 879 q 230 819 230 840 l 230 701 l 369 701 l 369 615 l 230 615 l 230 0 l 118 0 l 118 615 l 12 615 l 12 701 l 118 701 "},"{":{"x_min":10,"x_max":362,"ha":373,"o":"m 244 33 q 248 -18 244 4 q 267 -57 253 -41 q 303 -81 280 -73 q 362 -90 326 -90 l 362 -169 q 249 -158 293 -169 q 178 -123 204 -148 q 142 -59 152 -98 q 132 36 132 -20 l 132 309 q 123 363 132 344 q 98 392 114 382 q 59 409 81 402 q 10 426 37 415 l 10 504 q 99 537 67 516 q 132 611 132 558 l 132 869 q 158 980 132 942 q 221 1032 185 1017 q 298 1048 258 1048 q 362 1048 337 1048 l 362 972 q 266 939 288 972 q 244 847 244 906 l 244 634 q 238 574 244 601 q 217 525 233 547 q 174 489 201 504 q 105 466 147 475 l 105 463 q 177 436 149 454 q 219 395 204 419 q 239 340 234 370 q 244 272 244 309 l 244 33 "},"X":{"x_min":8.171875,"x_max":740.453125,"ha":757,"o":"m 740 0 l 589 0 l 360 428 l 144 0 l 8 0 l 291 519 l 23 1002 l 167 1002 l 368 613 l 573 1002 l 710 1002 l 446 519 l 740 0 "},"ô":{"x_min":79,"x_max":602,"ha":681,"o":"m 340 937 l 250 807 l 141 807 l 277 1002 l 403 1002 l 539 807 l 430 807 l 340 937 m 340 79 q 412 95 384 79 q 456 148 439 112 q 478 243 472 184 q 484 388 484 302 q 474 506 484 460 q 445 576 464 551 q 399 612 426 602 q 340 621 373 621 q 281 612 307 621 q 235 576 254 602 q 206 506 216 551 q 196 388 196 460 q 202 243 196 302 q 224 148 208 184 q 268 95 241 112 q 340 79 296 79 m 340 -14 q 238 -2 286 -14 q 155 47 190 9 q 99 154 119 84 q 79 340 79 223 q 86 485 79 416 q 120 604 94 553 q 198 685 147 655 q 340 715 250 715 q 482 685 430 715 q 560 604 533 655 q 594 485 587 553 q 602 340 602 416 q 581 154 602 223 q 525 47 561 84 q 442 -2 490 9 q 340 -14 394 -14 "},"¼":{"x_min":68.453125,"x_max":859,"ha":907,"o":"m 692 214 l 692 491 l 689 491 l 565 214 l 692 214 m 256 391 l 161 391 l 161 876 l 68 817 l 68 899 q 90 910 76 902 q 118 929 103 919 q 148 950 133 939 q 171 969 162 962 l 256 969 l 256 391 m 88 -38 l 683 1002 l 768 1002 l 174 -38 l 88 -38 m 478 136 l 478 207 l 652 577 l 787 577 l 787 214 l 859 214 l 859 136 l 787 136 l 787 0 l 692 0 l 692 136 l 478 136 "},"#":{"x_min":-4.078125,"x_max":612.5,"ha":604,"o":"m 333 403 l 381 561 l 270 561 l 224 403 l 333 403 m 130 325 l -4 325 l 19 403 l 153 403 l 201 561 l 63 561 l 87 639 l 223 639 l 322 963 l 392 963 l 292 639 l 404 639 l 500 963 l 571 963 l 473 639 l 612 639 l 589 561 l 450 561 l 402 403 l 543 403 l 519 325 l 379 325 l 281 0 l 212 0 l 310 325 l 201 325 l 100 0 l 31 0 l 130 325 "},"Ê":{"x_min":110,"x_max":624.28125,"ha":680,"o":"m 339 1238 l 249 1108 l 141 1108 l 277 1303 l 402 1303 l 538 1108 l 429 1108 l 339 1238 m 110 0 l 110 1002 l 616 1002 l 616 891 l 235 891 l 235 569 l 588 569 l 588 458 l 235 458 l 235 111 l 624 111 l 624 0 l 110 0 "},")":{"x_min":90.796875,"x_max":310,"ha":378,"o":"m 96 -164 q 156 130 130 -16 q 182 430 182 278 q 155 742 182 588 q 90 1049 128 896 l 173 1049 q 220 898 196 974 q 264 747 244 822 q 297 593 284 671 q 310 435 310 516 q 297 282 310 357 q 265 131 284 206 q 221 -16 246 56 q 175 -164 196 -90 l 96 -164 "},"Å":{"x_min":20.390625,"x_max":811.25,"ha":832,"o":"m 498 1233 q 473 1291 498 1267 q 416 1316 449 1316 q 358 1291 382 1316 q 335 1233 335 1267 q 358 1174 335 1199 q 416 1150 382 1150 q 473 1174 449 1150 q 498 1233 498 1199 m 416 1093 q 363 1104 387 1093 q 319 1133 338 1115 q 289 1178 300 1152 q 279 1233 279 1203 q 289 1287 279 1262 q 319 1332 300 1313 q 362 1361 337 1350 q 416 1373 387 1373 q 470 1361 445 1373 q 513 1331 495 1350 q 543 1287 532 1312 q 554 1233 554 1262 q 543 1178 554 1203 q 513 1133 532 1152 q 470 1104 495 1115 q 416 1093 445 1093 m 408 885 l 405 885 l 251 350 l 566 350 l 408 885 m 332 1002 l 491 1002 l 811 0 l 671 0 l 600 239 l 220 239 l 146 0 l 20 0 l 332 1002 "},"ø":{"x_min":49.0625,"x_max":631.953125,"ha":681,"o":"m 227 144 q 340 79 258 79 q 412 95 384 79 q 456 148 439 112 q 478 243 472 184 q 484 388 484 302 q 475 498 484 459 l 227 144 m 454 559 q 406 608 435 595 q 340 621 377 621 q 281 612 307 621 q 235 576 254 602 q 206 506 216 551 q 196 388 196 460 q 208 208 196 272 l 454 559 m 588 748 l 631 720 l 555 612 q 593 490 585 560 q 602 340 602 420 q 581 154 602 223 q 525 47 561 84 q 442 -2 490 9 q 340 -14 394 -14 q 238 -2 285 -14 q 156 45 191 9 l 91 -48 l 49 -18 l 125 90 q 90 192 102 131 q 79 340 79 252 q 86 485 79 416 q 120 604 94 553 q 198 685 147 655 q 340 715 250 715 q 449 699 405 715 q 523 655 493 683 l 588 748 "},"â":{"x_min":88,"x_max":573.890625,"ha":680,"o":"m 340 937 l 250 807 l 141 807 l 277 1002 l 402 1002 l 538 807 l 429 807 l 340 937 m 450 347 q 366 347 410 347 q 284 334 321 347 q 223 293 247 321 q 200 208 200 264 q 225 118 200 157 q 306 79 251 79 q 358 89 331 79 q 405 128 384 99 q 438 210 426 157 q 450 347 450 262 m 451 101 l 449 101 q 382 13 423 40 q 276 -14 341 -14 q 185 3 221 -14 q 127 51 149 21 q 96 125 105 82 q 88 218 88 168 q 122 344 88 298 q 209 410 156 389 q 326 432 262 432 q 449 432 390 432 q 449 502 449 467 q 438 565 449 537 q 403 611 427 593 q 334 629 379 629 q 248 594 276 629 q 225 504 220 559 l 106 504 q 165 668 106 622 q 337 715 225 715 q 448 698 404 715 q 516 653 491 681 q 552 586 542 624 q 563 504 563 548 l 563 166 q 563 82 563 124 q 573 0 563 40 l 451 0 l 451 101 "},"}":{"x_min":10,"x_max":362,"ha":373,"o":"m 128 272 q 132 340 128 309 q 152 395 137 370 q 194 436 167 419 q 267 463 222 454 l 267 466 q 196 489 223 475 q 154 525 170 504 q 133 574 138 547 q 128 634 128 601 l 128 847 q 105 939 128 906 q 10 972 83 972 l 10 1048 q 73 1048 34 1048 q 150 1032 113 1048 q 213 980 186 1017 q 240 869 240 942 l 240 611 q 272 537 240 558 q 362 504 305 516 l 362 426 q 312 409 334 415 q 273 392 290 402 q 248 363 257 382 q 240 309 240 344 l 240 36 q 229 -59 240 -20 q 193 -123 219 -98 q 122 -158 167 -148 q 10 -169 78 -169 l 10 -90 q 104 -56 80 -90 q 128 33 128 -23 l 128 272 "},"‰":{"x_min":34,"x_max":1173,"ha":1210,"o":"m 187 608 q 231 631 216 608 q 251 687 246 655 q 257 753 257 720 q 257 807 257 786 q 257 851 257 828 q 250 894 257 874 q 229 927 244 914 q 187 941 215 941 q 145 927 159 941 q 124 894 130 914 q 118 851 118 874 q 118 807 118 828 q 118 753 118 786 q 123 687 118 720 q 142 631 128 655 q 187 608 156 608 m 1020 57 q 1064 80 1049 57 q 1084 136 1079 104 q 1090 202 1090 169 q 1090 256 1090 235 q 1090 300 1090 277 q 1083 343 1090 323 q 1062 376 1077 363 q 1020 390 1048 390 q 978 376 992 390 q 957 343 963 363 q 951 300 951 323 q 951 256 951 277 q 951 202 951 235 q 956 136 951 169 q 975 80 961 104 q 1020 57 989 57 m 624 57 q 668 80 653 57 q 688 136 683 104 q 694 202 694 169 q 694 256 694 235 q 694 300 694 277 q 687 343 694 323 q 666 376 681 363 q 624 390 652 390 q 582 376 596 390 q 561 343 567 363 q 555 300 555 323 q 555 256 555 277 q 555 202 555 235 q 560 136 555 169 q 579 80 565 104 q 624 57 593 57 m 593 1055 l 679 1055 l 212 -47 l 128 -47 l 593 1055 m 624 468 q 713 448 681 468 q 761 396 745 429 q 777 320 777 363 q 777 231 777 277 q 777 142 777 187 q 761 60 777 97 q 713 1 745 24 q 624 -21 681 -21 q 534 1 566 -21 q 486 60 502 24 q 471 142 471 97 q 471 231 471 187 q 471 320 471 277 q 486 396 471 363 q 534 448 502 429 q 624 468 566 468 m 1019 468 q 1109 448 1077 468 q 1157 396 1141 429 q 1173 320 1173 363 q 1173 231 1173 277 q 1173 142 1173 187 q 1157 60 1173 97 q 1109 1 1141 24 q 1019 -21 1077 -21 q 930 1 962 -21 q 883 60 899 24 q 867 142 867 97 q 867 231 867 187 q 867 320 867 277 q 882 396 867 363 q 930 448 898 429 q 1019 468 962 468 m 186 1019 q 276 999 244 1019 q 324 947 308 980 q 340 871 340 914 q 340 782 340 828 q 340 693 340 738 q 324 611 340 648 q 276 552 308 575 q 186 530 244 530 q 97 552 129 530 q 50 611 66 575 q 34 693 34 648 q 34 782 34 738 q 34 871 34 828 q 49 947 34 914 q 97 999 65 980 q 186 1019 129 1019 "},"Ä":{"x_min":20.671875,"x_max":811.96875,"ha":832,"o":"m 601 1121 l 473 1121 l 473 1265 l 601 1265 l 601 1121 m 361 1121 l 233 1121 l 233 1265 l 361 1265 l 361 1121 m 408 885 l 406 885 l 252 350 l 566 350 l 408 885 m 332 1002 l 492 1002 l 811 0 l 671 0 l 601 239 l 220 239 l 147 0 l 20 0 l 332 1002 "},"¸":{"x_min":40.796875,"x_max":333,"ha":378,"o":"m 88 -118 l 174 1 l 239 1 l 176 -82 l 179 -85 q 198 -79 187 -82 q 220 -77 209 -77 q 299 -104 266 -77 q 333 -182 333 -131 q 318 -243 333 -218 q 280 -282 303 -267 q 229 -305 258 -298 q 175 -312 201 -312 q 102 -302 137 -312 q 40 -281 67 -292 l 63 -226 q 107 -240 87 -234 q 152 -247 127 -247 q 178 -244 164 -247 q 204 -235 193 -241 q 222 -217 215 -228 q 230 -191 230 -206 q 210 -147 230 -161 q 163 -134 190 -134 q 136 -138 149 -134 q 111 -145 123 -142 l 88 -118 "},"a":{"x_min":88,"x_max":573.890625,"ha":680,"o":"m 450 347 q 366 347 410 347 q 284 334 321 347 q 223 293 247 321 q 200 208 200 264 q 225 118 200 157 q 306 79 251 79 q 358 89 331 79 q 405 128 384 99 q 438 210 426 157 q 450 347 450 262 m 451 101 l 449 101 q 382 13 423 40 q 276 -14 341 -14 q 185 3 221 -14 q 127 51 149 21 q 96 125 105 82 q 88 218 88 168 q 122 344 88 298 q 209 410 156 389 q 326 432 262 432 q 449 432 390 432 q 449 502 449 467 q 438 565 449 537 q 403 611 427 593 q 334 629 379 629 q 248 594 276 629 q 225 504 220 559 l 106 504 q 165 668 106 622 q 337 715 225 715 q 448 698 404 715 q 516 653 491 681 q 552 586 542 624 q 563 504 563 548 l 563 166 q 563 82 563 124 q 573 0 563 40 l 451 0 l 451 101 "},"—":{"x_min":0,"x_max":1361,"ha":1361,"o":"m 0 415 l 1361 415 l 1361 337 l 0 337 l 0 415 "},"=":{"x_min":59,"x_max":623,"ha":682,"o":"m 623 174 l 59 174 l 59 260 l 623 260 l 623 174 m 623 448 l 59 448 l 59 534 l 623 534 l 623 448 "},"N":{"x_min":117,"x_max":791,"ha":908,"o":"m 791 1002 l 791 0 l 619 0 l 231 869 l 229 869 l 229 0 l 117 0 l 117 1002 l 294 1002 l 676 144 l 679 144 l 679 1002 l 791 1002 "},"˚":{"x_min":52,"x_max":327,"ha":379,"o":"m 271 931 q 246 989 271 965 q 189 1014 222 1014 q 131 989 155 1014 q 108 931 108 965 q 131 872 108 897 q 189 848 155 848 q 246 872 222 848 q 271 931 271 897 m 189 791 q 136 802 160 791 q 92 831 111 813 q 62 876 73 850 q 52 931 52 901 q 62 985 52 960 q 92 1030 73 1011 q 135 1059 110 1048 q 189 1071 160 1071 q 243 1059 218 1071 q 286 1029 268 1048 q 316 985 305 1010 q 327 931 327 960 q 316 876 327 901 q 286 831 305 850 q 243 802 268 813 q 189 791 218 791 "},"ú":{"x_min":102,"x_max":580,"ha":681,"o":"m 502 1002 l 324 807 l 233 807 l 354 1002 l 502 1002 m 466 701 l 580 701 l 580 146 q 580 72 580 109 q 580 0 580 35 l 466 0 l 466 85 l 461 85 q 388 10 434 35 q 287 -14 341 -14 q 149 31 197 -14 q 102 166 102 76 l 102 701 l 214 701 l 214 215 q 242 112 214 151 q 331 73 271 73 q 377 82 352 73 q 421 110 401 91 q 453 161 440 130 q 466 236 466 191 l 466 701 "},"⁄":{"x_min":-225.9375,"x_max":453.25,"ha":227,"o":"m -225 -42 l 368 998 l 453 998 l -140 -42 l -225 -42 "},"2":{"x_min":57,"x_max":566,"ha":604,"o":"m 58 0 l 58 111 q 230 352 161 258 q 340 513 299 447 q 399 630 382 579 q 416 744 416 681 q 388 837 416 802 q 299 872 360 872 q 242 858 263 872 q 208 822 220 844 q 192 772 195 801 q 189 715 189 744 l 57 715 q 114 907 57 835 q 291 979 171 979 q 479 917 418 979 q 541 726 541 856 q 532 628 541 672 q 504 543 523 584 q 458 460 486 502 q 390 368 429 419 q 302 255 352 317 q 191 111 252 192 l 566 111 l 566 0 l 58 0 "},"ü":{"x_min":102,"x_max":580,"ha":681,"o":"m 284 819 l 156 819 l 156 963 l 284 963 l 284 819 m 524 819 l 396 819 l 396 963 l 524 963 l 524 819 m 466 701 l 580 701 l 580 146 q 580 72 580 109 q 580 0 580 35 l 466 0 l 466 85 l 461 85 q 388 10 434 35 q 287 -14 341 -14 q 149 31 197 -14 q 102 166 102 76 l 102 701 l 214 701 l 214 215 q 242 112 214 151 q 331 73 271 73 q 377 82 352 73 q 421 110 401 91 q 453 161 440 130 q 466 236 466 191 l 466 701 "},"¯":{"x_min":1,"x_max":377,"ha":378,"o":"m 377 922 l 377 844 l 1 844 l 1 922 l 377 922 "},"Z":{"x_min":33,"x_max":647,"ha":681,"o":"m 636 874 l 148 111 l 647 111 l 647 0 l 33 0 l 33 144 l 509 888 l 509 891 l 49 891 l 49 1002 l 636 1002 l 636 874 "},"u":{"x_min":102,"x_max":580,"ha":681,"o":"m 466 701 l 580 701 l 580 146 q 580 72 580 109 q 580 0 580 35 l 466 0 l 466 85 l 461 85 q 388 10 434 35 q 287 -14 341 -14 q 149 31 197 -14 q 102 166 102 76 l 102 701 l 214 701 l 214 215 q 242 112 214 151 q 331 73 271 73 q 377 82 352 73 q 421 110 401 91 q 453 161 440 130 q 466 236 466 191 l 466 701 "},"˜":{"x_min":-42.1875,"x_max":420.578125,"ha":378,"o":"m 420 963 q 406 906 417 933 q 378 857 396 878 q 336 824 360 836 q 279 812 311 812 q 231 820 255 812 q 181 838 206 828 q 130 857 155 849 q 83 865 106 865 q 41 845 59 865 q 20 802 23 825 l -42 802 q -2 908 -35 865 q 99 952 31 952 q 152 944 126 952 q 201 927 178 936 q 245 908 224 916 q 281 901 265 901 q 351 963 345 901 l 420 963 "},"Ó":{"x_min":106,"x_max":724,"ha":832,"o":"m 578 1303 l 400 1108 l 308 1108 l 429 1303 l 578 1303 m 415 86 q 493 97 459 86 q 549 140 526 109 q 584 225 572 172 q 596 360 596 278 l 596 699 q 573 822 596 778 q 520 886 551 866 q 459 911 489 907 q 415 916 429 916 q 370 911 400 916 q 309 886 340 907 q 256 822 278 866 q 234 699 234 778 l 234 360 q 245 225 234 278 q 280 140 257 172 q 336 97 303 109 q 415 86 370 86 m 415 -21 q 182 68 258 -21 q 106 366 106 158 l 106 695 q 182 934 106 845 q 415 1023 258 1023 q 647 934 571 1023 q 724 695 724 845 l 724 366 q 647 68 724 158 q 415 -21 571 -21 "},"k":{"x_min":98,"x_max":599.28125,"ha":605,"o":"m 210 0 l 98 0 l 98 1002 l 210 1002 l 210 398 l 212 398 l 422 701 l 558 701 l 329 399 l 599 0 l 457 0 l 212 393 l 210 393 l 210 0 "},"ˇ":{"x_min":-9.53125,"x_max":387.921875,"ha":378,"o":"m 387 1003 l 251 807 l 126 807 l -9 1003 l 99 1003 l 189 872 l 279 1003 l 387 1003 "},"Ù":{"x_min":106,"x_max":724,"ha":832,"o":"m 402 1303 l 524 1108 l 432 1108 l 254 1303 l 402 1303 m 106 1002 l 231 1002 l 231 360 q 243 225 231 278 q 278 140 255 172 q 335 97 301 109 q 415 86 370 86 q 494 97 459 86 q 551 140 528 109 q 586 225 574 172 q 599 360 599 278 l 599 1002 l 724 1002 l 724 366 q 647 68 724 158 q 415 -21 571 -21 q 182 68 258 -21 q 106 366 106 158 l 106 1002 "},"Ÿ":{"x_min":11.359375,"x_max":669.28125,"ha":682,"o":"m 285 1120 l 157 1120 l 157 1264 l 285 1264 l 285 1120 m 525 1120 l 397 1120 l 397 1264 l 525 1264 l 525 1120 m 542 1002 l 669 1002 l 401 381 l 401 0 l 276 0 l 276 381 l 11 1002 l 151 1002 l 343 517 l 542 1002 "},"€":{"x_min":9.421875,"x_max":577,"ha":604,"o":"m 87 436 l 87 527 l 9 527 l 24 621 l 90 621 l 90 688 q 149 910 90 835 q 337 985 209 985 q 512 924 449 985 q 576 734 576 864 l 455 734 q 427 835 455 797 q 338 873 399 873 q 244 828 272 873 q 217 702 217 783 l 217 621 l 434 621 l 419 527 l 215 527 l 215 436 l 403 436 l 388 342 l 216 342 l 216 261 q 245 129 216 173 q 344 85 274 85 q 432 117 405 85 q 459 225 459 150 l 577 225 q 337 -25 577 -25 q 148 48 209 -25 q 88 259 88 121 l 88 342 l 9 342 l 24 436 l 87 436 "},"¢":{"x_min":63,"x_max":541,"ha":605,"o":"m 369 609 q 325 622 353 622 q 266 612 293 622 q 221 576 240 602 q 193 506 203 551 q 183 388 183 460 q 183 272 183 322 q 195 186 183 222 l 197 186 l 369 609 m 541 234 q 521 128 541 175 q 472 50 502 82 q 402 1 441 18 q 324 -15 364 -15 q 251 -9 286 -15 q 185 12 217 -3 l 147 -80 l 97 -58 l 139 46 q 83 154 103 84 q 63 340 63 223 q 70 485 63 416 q 104 604 77 554 q 182 685 131 655 q 324 715 234 715 q 407 702 370 715 l 442 789 l 490 769 l 455 680 q 538 476 538 623 l 420 476 q 417 523 420 501 q 409 563 415 545 l 227 118 q 324 78 259 78 q 369 91 350 78 q 400 126 388 104 q 417 176 411 148 q 423 234 423 204 l 541 234 "},"ß":{"x_min":95,"x_max":682,"ha":757,"o":"m 682 215 q 676 149 682 189 q 649 73 671 109 q 587 11 628 37 q 472 -15 545 -15 q 324 27 380 -15 q 269 174 269 69 l 385 174 q 406 104 385 130 q 471 78 428 78 q 517 89 500 78 q 546 118 535 100 q 560 159 556 136 q 564 205 564 182 q 548 275 564 246 q 506 327 532 304 q 452 372 481 351 q 397 417 423 393 q 356 473 372 441 q 340 551 340 505 q 361 615 340 584 q 410 676 383 645 q 458 737 436 706 q 480 802 480 769 q 446 898 480 866 q 353 930 412 930 q 270 913 299 930 q 226 871 240 896 q 209 816 212 846 q 207 758 207 785 l 207 0 l 95 0 l 95 803 q 124 912 95 870 q 194 979 153 955 q 278 1013 235 1003 q 350 1023 322 1023 q 447 1012 401 1023 q 528 978 493 1002 q 583 914 562 955 q 605 813 605 873 q 582 728 605 762 q 533 666 560 694 q 506 640 519 652 q 481 615 492 627 q 463 588 470 602 q 457 558 457 574 q 473 513 457 533 q 515 472 489 493 q 569 428 540 451 q 623 376 598 405 q 665 307 649 347 q 682 215 682 268 "},"é":{"x_min":87,"x_max":593,"ha":680,"o":"m 502 1002 l 323 807 l 232 807 l 353 1002 l 502 1002 m 475 400 q 464 521 475 476 q 436 590 454 566 q 393 622 419 615 q 337 629 367 629 q 287 620 310 629 q 246 587 264 612 q 217 517 228 562 q 207 400 207 472 l 475 400 m 207 314 q 216 194 207 240 q 243 122 226 148 q 287 88 261 97 q 345 79 313 79 q 396 90 374 79 q 432 119 417 101 q 455 161 447 137 q 464 212 464 185 l 587 212 q 522 40 587 94 q 348 -14 457 -14 q 246 -2 294 -14 q 163 47 198 9 q 107 154 127 84 q 87 340 87 223 q 94 485 87 416 q 128 604 101 553 q 206 685 155 655 q 348 715 258 715 q 469 694 421 715 q 544 631 516 673 q 582 524 571 588 q 593 373 593 461 l 593 314 l 207 314 "},"s":{"x_min":63,"x_max":541,"ha":605,"o":"m 541 199 q 522 101 541 141 q 472 35 504 60 q 396 -2 440 9 q 302 -14 352 -14 q 126 39 190 -14 q 63 214 63 93 l 191 214 q 193 175 191 198 q 205 131 195 152 q 240 94 216 109 q 305 79 263 79 q 389 105 355 79 q 423 185 423 131 q 398 239 423 216 q 335 282 373 262 q 252 322 297 302 q 169 369 207 342 q 106 433 131 396 q 80 523 80 470 q 90 584 80 551 q 126 646 99 617 q 198 695 152 676 q 316 715 244 715 q 403 703 362 715 q 474 667 443 691 q 520 605 504 644 q 537 516 537 567 l 412 516 q 384 600 412 571 q 303 629 356 629 q 228 604 258 629 q 198 534 198 580 q 223 481 198 503 q 286 439 248 459 q 369 401 324 420 q 452 354 414 381 q 515 290 490 327 q 541 199 541 252 "},"B":{"x_min":122,"x_max":733,"ha":831,"o":"m 247 580 l 429 580 q 538 622 502 580 q 575 738 575 665 q 538 846 575 801 q 423 891 502 891 l 247 891 l 247 580 m 247 111 l 423 111 q 508 127 474 111 q 564 169 542 144 q 595 224 585 194 q 605 281 605 253 q 587 378 605 341 q 541 435 570 414 q 469 462 511 455 q 380 469 428 469 l 247 469 l 247 111 m 122 0 l 122 1002 l 441 1002 q 528 993 491 1002 q 588 971 564 985 q 630 938 613 957 q 660 899 647 920 q 681 858 672 878 q 693 820 689 838 q 698 787 697 802 q 700 766 700 773 q 663 611 700 671 q 532 528 626 550 l 532 521 q 685 447 637 509 q 733 281 733 385 q 702 129 733 185 q 626 44 671 73 q 530 7 581 15 q 437 0 479 0 l 122 0 "},"…":{"x_min":163,"x_max":1197,"ha":1360,"o":"m 744 0 l 616 0 l 616 144 l 744 144 l 744 0 m 1197 0 l 1069 0 l 1069 144 l 1197 144 l 1197 0 m 291 0 l 163 0 l 163 144 l 291 144 l 291 0 "},"?":{"x_min":75,"x_max":535,"ha":604,"o":"m 362 0 l 234 0 l 234 144 l 362 144 l 362 0 m 242 253 l 242 412 q 267 497 242 457 q 324 580 293 537 q 381 675 355 624 q 407 793 407 725 q 400 840 407 816 q 382 884 394 864 q 350 917 370 905 q 304 930 331 930 q 247 909 267 930 q 216 860 226 889 q 206 797 206 831 q 206 737 206 763 l 75 737 q 86 853 75 800 q 125 943 98 906 q 199 1002 153 981 q 313 1023 245 1023 q 477 959 419 1023 q 535 791 535 896 q 521 688 535 734 q 488 606 507 642 q 444 540 468 570 q 400 484 420 510 q 367 433 381 457 q 354 382 354 409 l 354 253 l 242 253 "},"H":{"x_min":118,"x_max":713,"ha":831,"o":"m 118 0 l 118 1002 l 243 1002 l 243 569 l 588 569 l 588 1002 l 713 1002 l 713 0 l 588 0 l 588 458 l 243 458 l 243 0 l 118 0 "},"î":{"x_min":-47.921875,"x_max":349.921875,"ha":302,"o":"m 151 937 l 60 807 l -47 807 l 88 1002 l 213 1002 l 349 807 l 241 807 l 151 937 m 95 0 l 95 701 l 207 701 l 207 0 l 95 0 "},"c":{"x_min":101,"x_max":579,"ha":681,"o":"m 458 476 q 449 547 458 519 q 426 592 440 576 q 394 615 411 609 q 361 621 378 621 q 302 612 329 621 q 257 576 276 602 q 228 506 238 551 q 218 388 218 460 q 224 243 218 302 q 246 148 230 184 q 290 95 262 112 q 361 79 318 79 q 388 85 371 79 q 422 108 406 91 q 450 156 438 126 q 461 233 461 185 l 579 233 q 555 111 579 159 q 499 35 532 63 q 428 -2 466 8 q 361 -14 390 -14 q 259 -2 307 -14 q 177 47 212 9 q 121 154 141 84 q 101 340 101 223 q 108 485 101 416 q 142 604 115 553 q 220 685 168 655 q 360 715 271 715 q 519 654 463 715 q 576 476 576 594 l 458 476 "},"¶":{"x_min":11.3125,"x_max":527,"ha":599,"o":"m 225 468 q 144 489 182 468 q 75 546 105 510 q 29 630 46 582 q 11 732 11 678 q 19 811 11 764 q 53 899 27 857 q 129 972 79 942 q 260 1002 178 1002 l 527 1002 l 527 -168 l 432 -168 l 432 909 l 320 909 l 320 -168 l 225 -168 l 225 468 "},"−":{"x_min":59,"x_max":623,"ha":682,"o":"m 59 394 l 623 394 l 623 308 l 59 308 l 59 394 "},"•":{"x_min":18,"x_max":436,"ha":454,"o":"m 436 501 q 418 419 436 458 q 373 351 401 380 q 306 305 344 322 q 226 289 268 289 q 145 305 184 289 q 79 351 107 322 q 34 419 50 380 q 18 501 18 458 q 34 583 18 544 q 79 651 50 622 q 145 697 107 680 q 226 715 184 715 q 306 697 268 715 q 373 651 344 680 q 418 583 401 622 q 436 501 436 544 "},"¥":{"x_min":-2.546875,"x_max":608.921875,"ha":605,"o":"m 90 276 l 245 276 l 245 367 l 90 367 l 90 461 l 211 461 l -2 963 l 129 963 l 306 517 l 489 963 l 608 963 l 391 461 l 515 461 l 515 367 l 357 367 l 357 276 l 515 276 l 515 183 l 357 183 l 357 0 l 245 0 l 245 183 l 90 183 l 90 276 "},"(":{"x_min":68,"x_max":287.1875,"ha":378,"o":"m 202 -164 q 155 -16 179 -90 q 112 131 132 56 q 80 282 93 206 q 68 435 68 357 q 80 593 68 516 q 113 747 93 671 q 157 898 133 822 q 204 1049 181 974 l 287 1049 q 222 742 249 896 q 196 430 196 588 q 221 130 196 278 q 281 -164 247 -16 l 202 -164 "},"U":{"x_min":106,"x_max":724,"ha":832,"o":"m 106 1002 l 231 1002 l 231 360 q 243 225 231 278 q 278 140 255 172 q 335 97 301 109 q 415 86 370 86 q 494 97 459 86 q 551 140 528 109 q 586 225 574 172 q 599 360 599 278 l 599 1002 l 724 1002 l 724 366 q 647 68 724 158 q 415 -21 571 -21 q 182 68 258 -21 q 106 366 106 158 l 106 1002 "},"Ñ":{"x_min":117,"x_max":791,"ha":908,"o":"m 685 1264 q 672 1207 683 1235 q 643 1158 661 1179 q 601 1125 626 1138 q 544 1113 577 1113 q 496 1121 521 1113 q 446 1139 472 1129 q 396 1158 420 1150 q 348 1166 371 1166 q 307 1146 325 1166 q 286 1104 288 1126 l 223 1104 q 263 1210 230 1167 q 364 1253 296 1253 q 417 1245 392 1253 q 466 1228 443 1237 q 510 1209 490 1217 q 547 1202 530 1202 q 616 1264 611 1202 l 685 1264 m 791 1002 l 791 0 l 619 0 l 231 869 l 229 869 l 229 0 l 117 0 l 117 1002 l 294 1002 l 676 144 l 679 144 l 679 1002 l 791 1002 "},"F":{"x_min":101,"x_max":588.0625,"ha":604,"o":"m 101 0 l 101 1002 l 588 1002 l 588 891 l 226 891 l 226 569 l 569 569 l 569 458 l 226 458 l 226 0 l 101 0 "},"­":{"x_min":76,"x_max":375,"ha":453,"o":"m 76 432 l 375 432 l 375 325 l 76 325 l 76 432 "},":":{"x_min":87,"x_max":215,"ha":302,"o":"m 215 0 l 87 0 l 87 144 l 215 144 l 215 0 m 215 557 l 87 557 l 87 701 l 215 701 l 215 557 "},"Û":{"x_min":106,"x_max":724,"ha":832,"o":"m 416 1238 l 326 1108 l 217 1108 l 353 1303 l 479 1303 l 615 1108 l 506 1108 l 416 1238 m 106 1002 l 231 1002 l 231 360 q 243 225 231 278 q 278 140 255 172 q 335 97 301 109 q 415 86 370 86 q 494 97 459 86 q 551 140 528 109 q 586 225 574 172 q 599 360 599 278 l 599 1002 l 724 1002 l 724 366 q 647 68 724 158 q 415 -21 571 -21 q 182 68 258 -21 q 106 366 106 158 l 106 1002 "},"*":{"x_min":44,"x_max":561,"ha":605,"o":"m 348 745 l 472 565 l 393 520 l 302 720 l 211 520 l 132 565 l 256 745 l 44 724 l 44 808 l 256 808 l 133 975 l 214 1023 l 302 826 l 390 1023 l 471 975 l 348 808 l 561 808 l 561 724 l 348 745 "},"†":{"x_min":53,"x_max":551,"ha":604,"o":"m 246 701 l 53 701 l 53 794 l 246 794 l 246 1002 l 358 1002 l 358 794 l 551 794 l 551 701 l 358 701 l 358 0 l 246 0 l 246 701 "},"∕":{"x_min":-225.9375,"x_max":453.25,"ha":227,"o":"m -225 -42 l 368 998 l 453 998 l -140 -42 l -225 -42 "},"°":{"x_min":68,"x_max":476,"ha":544,"o":"m 392 770 q 382 817 392 794 q 356 855 372 839 q 317 882 340 872 q 270 892 295 892 q 224 882 246 892 q 186 855 202 872 q 160 817 169 839 q 152 770 152 794 q 186 683 152 718 q 272 648 221 648 q 356 683 321 648 q 392 770 392 718 m 476 770 q 459 688 476 727 q 415 623 443 650 q 350 578 387 595 q 272 562 314 562 q 192 578 229 562 q 127 623 155 595 q 84 688 100 650 q 68 770 68 727 q 83 850 68 812 q 127 916 99 887 q 192 961 155 944 q 272 978 229 978 q 350 961 314 978 q 415 916 387 944 q 459 850 443 887 q 476 770 476 812 "},"V":{"x_min":17.6875,"x_max":739.078125,"ha":757,"o":"m 451 0 l 302 0 l 17 1002 l 153 1002 l 378 121 l 381 121 l 611 1002 l 739 1002 l 451 0 "},"å":{"x_min":88,"x_max":573.890625,"ha":680,"o":"m 421 931 q 396 990 421 966 q 339 1015 372 1015 q 281 990 305 1015 q 258 931 258 966 q 281 873 258 898 q 339 848 305 848 q 396 873 372 848 q 421 931 421 898 m 450 347 q 366 347 410 347 q 284 334 321 347 q 223 293 247 321 q 200 208 200 264 q 225 118 200 157 q 306 79 251 79 q 358 89 331 79 q 405 128 384 99 q 438 210 426 157 q 450 347 450 262 m 339 791 q 286 802 310 791 q 242 832 261 813 q 212 876 223 850 q 202 931 202 902 q 212 986 202 960 q 242 1030 223 1012 q 285 1060 260 1049 q 339 1072 310 1072 q 393 1060 368 1072 q 436 1030 418 1049 q 466 985 455 1010 q 477 931 477 960 q 466 876 477 902 q 436 832 455 850 q 393 802 418 813 q 339 791 368 791 m 451 101 l 449 101 q 381 13 422 40 q 275 -14 340 -14 q 185 3 221 -14 q 127 51 149 21 q 96 125 105 82 q 88 218 88 168 q 121 344 88 298 q 208 410 155 389 q 325 432 261 432 q 449 432 389 432 q 449 502 449 467 q 438 565 449 537 q 403 611 427 593 q 333 629 378 629 q 247 594 276 629 q 225 504 219 559 l 106 504 q 165 668 106 622 q 337 715 225 715 q 448 698 404 715 q 516 653 491 681 q 552 586 542 624 q 563 504 563 548 l 563 166 q 563 82 563 124 q 573 0 563 40 l 451 0 l 451 101 "}," ":{"x_min":0,"x_max":0,"ha":302},"0":{"x_min":50,"x_max":552,"ha":604,"o":"m 301 872 q 225 842 252 872 q 186 759 198 813 q 174 627 174 705 q 174 452 174 549 q 174 326 174 391 q 184 208 174 262 q 222 120 195 155 q 301 86 249 86 q 378 120 352 86 q 416 208 405 155 q 428 326 428 262 q 428 452 428 391 q 428 627 428 549 q 415 759 428 705 q 376 842 403 813 q 301 872 349 872 m 301 979 q 451 937 398 979 q 527 825 503 895 q 552 665 552 755 q 552 477 552 574 q 552 293 552 383 q 528 133 552 204 q 452 21 505 63 q 303 -21 399 -21 q 195 -1 239 -21 q 122 52 151 17 q 78 134 93 87 q 56 236 63 181 q 50 353 50 291 q 50 477 50 415 q 50 665 50 574 q 73 825 50 755 q 149 937 96 895 q 301 979 203 979 "},"”":{"x_min":85.75,"x_max":518.578125,"ha":604,"o":"m 371 1002 l 518 1002 l 406 726 l 313 726 l 371 1002 m 144 1002 l 291 1002 l 179 726 l 85 726 l 144 1002 "},"¾":{"x_min":8,"x_max":879,"ha":906,"o":"m 712 214 l 712 491 l 709 491 l 585 214 l 712 214 m 135 -37 l 731 1002 l 815 1002 l 222 -37 l 135 -37 m 135 725 q 223 749 191 725 q 255 824 255 774 q 238 884 255 858 q 176 910 222 910 q 116 882 130 910 q 103 821 103 855 l 16 821 q 54 937 16 895 q 178 979 93 979 q 303 942 256 979 q 350 829 350 905 q 335 762 350 787 q 299 723 320 737 q 257 703 279 709 q 222 694 235 697 l 222 691 q 363 545 363 674 q 309 419 363 460 q 166 379 255 379 q 68 401 102 379 q 21 452 35 423 q 8 510 8 481 q 8 551 8 538 l 95 551 q 98 514 95 531 q 109 484 101 497 q 133 464 118 472 q 174 457 149 457 q 248 481 228 457 q 268 547 268 506 q 238 636 268 612 q 135 661 208 661 l 135 725 m 498 136 l 498 207 l 672 577 l 807 577 l 807 214 l 879 214 l 879 136 l 807 136 l 807 0 l 712 0 l 712 136 l 498 136 "},"@":{"x_min":33,"x_max":1040,"ha":1073,"o":"m 587 744 q 489 709 532 744 q 414 624 445 675 q 367 514 384 573 q 350 409 350 456 q 356 360 350 384 q 377 316 363 335 q 410 287 390 298 q 456 276 430 276 q 528 298 495 276 q 586 357 561 321 q 630 437 611 394 q 660 521 648 480 q 678 594 673 562 q 684 642 684 627 q 657 713 684 682 q 587 744 630 744 m 759 800 l 853 800 l 713 375 q 702 339 708 360 q 696 303 696 319 q 707 276 696 285 q 736 268 719 268 q 807 288 768 268 q 881 350 847 309 q 940 453 916 391 q 964 596 964 514 q 959 651 964 617 q 939 724 954 685 q 896 802 924 763 q 822 872 868 840 q 708 924 776 904 q 546 945 639 945 q 375 910 454 945 q 236 815 295 875 q 143 673 177 754 q 109 501 109 592 q 143 327 109 408 q 236 186 177 247 q 375 91 295 126 q 546 57 454 57 q 770 103 669 57 q 932 241 871 149 l 1014 241 q 932 131 981 180 q 823 49 883 82 q 692 -2 762 15 q 546 -21 622 -21 q 346 19 439 -21 q 183 131 253 60 q 73 297 113 202 q 33 502 33 392 q 73 705 33 610 q 183 870 113 800 q 346 982 253 941 q 546 1023 439 1023 q 742 995 661 1023 q 878 925 823 967 q 965 830 933 882 q 1014 731 997 778 q 1035 647 1030 684 q 1040 596 1040 610 q 1003 400 1040 478 q 916 275 967 321 q 810 209 865 228 q 717 190 755 190 q 647 207 682 190 q 599 263 611 224 q 523 211 568 230 q 435 193 479 193 q 356 209 392 193 q 296 254 321 226 q 258 321 272 283 q 245 402 245 359 q 269 548 245 473 q 339 684 294 623 q 446 786 383 746 q 585 827 509 827 q 676 803 633 827 q 740 734 719 780 l 759 800 "},"ö":{"x_min":79,"x_max":602,"ha":681,"o":"m 524 819 l 396 819 l 396 963 l 524 963 l 524 819 m 285 819 l 157 819 l 157 963 l 285 963 l 285 819 m 340 79 q 412 95 384 79 q 456 148 439 112 q 478 243 472 184 q 484 388 484 302 q 474 506 484 460 q 445 576 464 551 q 399 612 426 602 q 340 621 373 621 q 281 612 307 621 q 235 576 254 602 q 206 506 216 551 q 196 388 196 460 q 202 243 196 302 q 224 148 208 184 q 268 95 241 112 q 340 79 296 79 m 340 -14 q 238 -2 286 -14 q 155 47 190 9 q 99 154 119 84 q 79 340 79 223 q 86 485 79 416 q 120 604 94 553 q 198 685 147 655 q 340 715 250 715 q 482 685 430 715 q 560 604 533 655 q 594 485 587 553 q 602 340 602 416 q 581 154 602 223 q 525 47 561 84 q 442 -2 490 9 q 340 -14 394 -14 "},"i":{"x_min":88,"x_max":213,"ha":301,"o":"m 88 1002 l 213 1002 l 213 880 l 88 880 l 88 1002 m 207 0 l 95 0 l 95 701 l 207 701 l 207 0 "},"Õ":{"x_min":106,"x_max":724,"ha":832,"o":"m 647 1265 q 634 1207 645 1235 q 605 1159 623 1179 q 563 1125 587 1138 q 506 1113 538 1113 q 458 1121 483 1113 q 408 1139 434 1129 q 357 1158 382 1150 q 310 1166 333 1166 q 268 1146 287 1166 q 247 1104 250 1126 l 184 1104 q 225 1210 191 1167 q 326 1253 258 1253 q 379 1245 353 1253 q 428 1228 405 1237 q 472 1209 451 1217 q 508 1202 492 1202 q 578 1265 572 1202 l 647 1265 m 415 86 q 493 97 459 86 q 549 140 526 109 q 584 225 572 172 q 596 360 596 278 l 596 699 q 573 822 596 778 q 520 886 551 866 q 459 911 489 907 q 415 916 429 916 q 370 911 400 916 q 309 886 340 907 q 256 822 278 866 q 234 699 234 778 l 234 360 q 245 225 234 278 q 280 140 257 172 q 336 97 303 109 q 415 86 370 86 m 415 -21 q 182 68 258 -21 q 106 366 106 158 l 106 695 q 182 934 106 845 q 415 1023 258 1023 q 647 934 571 1023 q 724 695 724 845 l 724 366 q 647 68 724 158 q 415 -21 571 -21 "},"þ":{"x_min":108,"x_max":598,"ha":681,"o":"m 222 378 q 222 285 222 338 q 233 188 222 234 q 269 110 244 142 q 346 79 295 79 q 427 104 399 79 q 468 168 455 130 q 482 251 482 206 q 482 337 482 297 q 477 460 482 408 q 458 549 472 513 q 417 603 443 585 q 346 622 391 622 q 274 597 300 622 q 235 535 248 572 q 222 456 222 498 q 222 378 222 413 m 108 1003 l 220 1003 l 220 618 l 222 618 q 288 690 251 666 q 376 715 325 715 q 507 680 460 715 q 575 592 553 646 q 598 471 598 538 q 598 338 598 403 q 579 154 598 223 q 529 47 560 84 q 458 -2 498 9 q 378 -14 419 -14 q 289 7 326 -14 q 224 71 252 29 l 220 71 l 220 -265 l 108 -265 l 108 1003 "},"]":{"x_min":52.578125,"x_max":283,"ha":378,"o":"m 52 -164 l 52 -86 l 171 -86 l 171 972 l 56 972 l 56 1050 l 283 1050 l 283 -164 l 52 -164 "},"m":{"x_min":88,"x_max":890,"ha":983,"o":"m 435 0 l 435 486 q 430 537 435 512 q 414 581 426 562 q 381 610 402 599 q 326 621 360 621 q 271 608 300 621 q 229 575 242 594 q 209 520 214 548 q 204 472 204 491 l 204 0 l 88 0 l 88 555 q 88 628 88 591 q 88 701 88 664 l 204 701 l 204 614 l 206 614 q 274 692 231 670 q 378 715 316 715 q 425 710 401 715 q 472 694 450 705 q 511 665 493 683 q 538 624 529 648 q 610 697 567 680 q 702 715 654 715 q 762 710 729 715 q 823 686 794 705 q 870 631 851 667 q 890 533 890 595 l 890 0 l 778 0 l 778 486 q 773 537 778 512 q 757 581 769 562 q 724 610 745 599 q 669 621 703 621 q 622 617 638 621 q 585 595 606 613 q 565 568 572 584 q 553 533 557 551 q 548 498 549 515 q 547 472 547 482 l 547 0 l 435 0 "},"8":{"x_min":50,"x_max":554,"ha":604,"o":"m 302 566 q 359 583 337 566 q 395 627 382 600 q 414 684 409 653 q 419 741 419 714 q 412 794 419 767 q 391 840 405 820 q 354 873 376 860 q 302 885 331 885 q 249 873 272 885 q 212 840 227 860 q 191 794 198 820 q 185 741 185 767 q 189 684 185 714 q 208 627 194 653 q 244 583 221 600 q 302 566 266 566 m 302 86 q 361 101 337 86 q 400 140 385 116 q 422 195 415 165 q 429 258 429 226 q 425 324 429 289 q 409 388 422 359 q 370 436 396 417 q 302 455 345 455 q 233 436 258 455 q 194 388 207 417 q 178 324 181 359 q 175 258 175 289 q 181 195 175 226 q 203 140 188 165 q 242 101 218 116 q 302 86 266 86 m 379 509 q 465 481 431 503 q 519 425 499 459 q 546 349 539 392 q 554 259 554 306 q 489 53 554 128 q 302 -21 425 -21 q 114 53 178 -21 q 50 259 50 128 q 57 349 50 306 q 84 425 64 392 q 138 481 104 459 q 224 509 172 503 l 224 510 q 151 539 182 518 q 100 591 121 560 q 70 658 80 621 q 60 737 60 695 q 125 915 60 851 q 302 979 190 979 q 478 915 413 979 q 544 737 544 851 q 533 658 544 695 q 503 591 523 621 q 452 539 482 560 q 379 510 421 518 l 379 509 "},"ž":{"x_min":48,"x_max":482,"ha":530,"o":"m 464 1002 l 327 807 l 202 807 l 67 1002 l 175 1002 l 265 872 l 355 1002 l 464 1002 m 473 596 l 168 93 l 482 93 l 482 0 l 48 0 l 48 106 l 347 605 l 347 608 l 63 608 l 63 701 l 473 701 l 473 596 "},"R":{"x_min":108,"x_max":696.96875,"ha":757,"o":"m 233 572 l 420 572 q 479 585 454 572 q 521 622 505 599 q 545 675 537 645 q 554 738 554 705 q 547 792 554 764 q 524 841 540 820 q 483 877 509 863 q 422 891 458 891 l 233 891 l 233 572 m 233 461 l 233 0 l 108 0 l 108 1002 l 446 1002 q 556 980 511 1002 q 629 923 601 959 q 669 843 657 888 q 682 752 682 799 q 635 601 682 663 q 503 523 589 538 l 503 520 q 575 501 544 513 q 625 460 605 488 q 655 384 645 431 q 665 262 665 337 q 665 211 665 245 q 670 138 665 177 q 683 61 676 98 q 696 0 690 23 l 566 0 q 543 62 550 26 q 537 142 537 98 q 537 234 537 186 q 528 333 537 283 q 507 404 524 379 q 466 442 489 430 q 420 458 444 455 q 380 461 396 461 l 233 461 "},"á":{"x_min":88,"x_max":573.890625,"ha":680,"o":"m 501 1002 l 323 807 l 232 807 l 353 1002 l 501 1002 m 450 347 q 366 347 410 347 q 284 334 321 347 q 223 293 247 321 q 200 208 200 264 q 225 118 200 157 q 306 79 251 79 q 358 89 331 79 q 405 128 384 99 q 438 210 426 157 q 450 347 450 262 m 451 101 l 449 101 q 382 13 423 40 q 276 -14 341 -14 q 185 3 221 -14 q 127 51 149 21 q 96 125 105 82 q 88 218 88 168 q 122 344 88 298 q 209 410 156 389 q 326 432 262 432 q 449 432 390 432 q 449 502 449 467 q 438 565 449 537 q 403 611 427 593 q 334 629 379 629 q 248 594 276 629 q 225 504 220 559 l 106 504 q 165 668 106 622 q 337 715 225 715 q 448 698 404 715 q 516 653 491 681 q 552 586 542 624 q 563 504 563 548 l 563 166 q 563 82 563 124 q 573 0 563 40 l 451 0 l 451 101 "},"×":{"x_min":58.53125,"x_max":622.03125,"ha":681,"o":"m 58 577 l 118 638 l 340 412 l 562 638 l 622 577 l 400 351 l 622 124 l 562 63 l 340 290 l 118 63 l 58 124 l 280 351 l 58 577 "},"o":{"x_min":79,"x_max":602,"ha":681,"o":"m 340 79 q 412 95 384 79 q 456 148 439 112 q 478 243 472 184 q 484 388 484 302 q 474 506 484 460 q 445 576 464 551 q 399 612 426 602 q 340 621 373 621 q 281 612 307 621 q 235 576 254 602 q 206 506 216 551 q 196 388 196 460 q 202 243 196 302 q 224 148 208 184 q 268 95 241 112 q 340 79 296 79 m 340 -14 q 238 -2 286 -14 q 155 47 190 9 q 99 154 119 84 q 79 340 79 223 q 86 485 79 416 q 120 604 94 553 q 198 685 147 655 q 340 715 250 715 q 482 685 430 715 q 560 604 533 655 q 594 485 587 553 q 602 340 602 416 q 581 154 602 223 q 525 47 561 84 q 442 -2 490 9 q 340 -14 394 -14 "},"5":{"x_min":67,"x_max":556,"ha":605,"o":"m 521 963 l 521 852 l 206 852 l 206 571 l 208 568 q 267 620 223 600 q 358 641 310 641 q 508 562 460 641 q 556 316 556 484 q 549 198 556 257 q 516 90 542 138 q 439 10 490 41 q 299 -21 388 -21 q 180 -1 226 -21 q 109 50 135 17 q 75 126 84 83 q 67 218 67 169 l 192 218 q 197 163 192 190 q 216 117 202 137 q 250 84 229 97 q 302 72 271 72 q 372 92 347 72 q 409 142 396 112 q 424 210 421 173 q 428 284 428 248 q 428 382 428 337 q 416 461 428 428 q 379 514 404 495 q 310 534 354 534 q 230 502 258 534 q 193 421 201 470 l 81 421 l 81 963 l 521 963 "},"õ":{"x_min":79,"x_max":602,"ha":681,"o":"m 572 963 q 558 906 569 933 q 529 857 547 878 q 487 824 512 836 q 430 812 463 812 q 382 820 407 812 q 332 838 358 828 q 281 857 306 849 q 234 865 257 865 q 192 845 211 865 q 171 802 174 825 l 108 802 q 149 908 115 865 q 250 952 182 952 q 303 944 277 952 q 352 927 329 936 q 396 908 375 916 q 433 901 416 901 q 502 963 497 901 l 572 963 m 340 79 q 412 95 384 79 q 456 148 439 112 q 478 243 472 184 q 484 388 484 302 q 474 506 484 460 q 445 576 464 551 q 399 612 426 602 q 340 621 373 621 q 281 612 307 621 q 235 576 254 602 q 206 506 216 551 q 196 388 196 460 q 202 243 196 302 q 224 148 208 184 q 268 95 241 112 q 340 79 296 79 m 340 -14 q 238 -2 286 -14 q 155 47 190 9 q 99 154 119 84 q 79 340 79 223 q 86 485 79 416 q 120 604 94 553 q 198 685 147 655 q 340 715 250 715 q 482 685 430 715 q 560 604 533 655 q 594 485 587 553 q 602 340 602 416 q 581 154 602 223 q 525 47 561 84 q 442 -2 490 9 q 340 -14 394 -14 "},"7":{"x_min":41,"x_max":530,"ha":605,"o":"m 41 963 l 530 963 l 530 852 l 278 0 l 136 0 l 400 852 l 41 852 l 41 963 "},"K":{"x_min":110,"x_max":744.0625,"ha":756,"o":"m 110 0 l 110 1002 l 235 1002 l 235 562 l 239 562 l 582 1002 l 723 1002 l 367 549 l 744 0 l 583 0 l 239 523 l 235 523 l 235 0 l 110 0 "},",":{"x_min":46.28125,"x_max":257.25,"ha":302,"o":"m 117 145 l 257 145 l 133 -176 l 46 -176 l 117 145 "},"d":{"x_min":83,"x_max":573,"ha":681,"o":"m 458 378 q 458 456 458 413 q 445 535 458 498 q 405 596 432 571 q 331 621 379 621 q 257 603 285 621 q 214 549 229 585 q 200 460 200 513 q 200 337 200 408 q 200 251 200 297 q 213 168 200 206 q 255 104 227 130 q 336 79 283 79 q 409 106 383 79 q 447 176 435 133 q 458 272 458 219 q 458 378 458 326 m 461 1002 l 573 1002 l 573 0 l 461 0 l 461 83 l 458 83 q 393 10 430 34 q 302 -14 356 -14 q 222 -2 261 -14 q 151 47 182 9 q 101 154 120 84 q 83 338 83 223 q 83 471 83 403 q 105 592 83 538 q 173 680 127 646 q 304 715 220 715 q 391 693 354 715 q 457 630 428 671 l 461 630 l 461 1002 "},"¨":{"x_min":5,"x_max":373,"ha":378,"o":"m 373 819 l 245 819 l 245 963 l 373 963 l 373 819 m 133 819 l 5 819 l 5 963 l 133 963 l 133 819 "},"Ô":{"x_min":106,"x_max":724,"ha":832,"o":"m 416 1238 l 326 1108 l 217 1108 l 353 1303 l 478 1303 l 615 1108 l 506 1108 l 416 1238 m 415 86 q 493 97 459 86 q 549 140 526 109 q 584 225 572 172 q 596 360 596 278 l 596 699 q 573 822 596 778 q 520 886 551 866 q 459 911 489 907 q 415 916 429 916 q 370 911 400 916 q 309 886 340 907 q 256 822 278 866 q 234 699 234 778 l 234 360 q 245 225 234 278 q 280 140 257 172 q 336 97 303 109 q 415 86 370 86 m 415 -21 q 182 68 258 -21 q 106 366 106 158 l 106 695 q 182 934 106 845 q 415 1023 258 1023 q 647 934 571 1023 q 724 695 724 845 l 724 366 q 647 68 724 158 q 415 -21 571 -21 "},"E":{"x_min":110,"x_max":624.28125,"ha":680,"o":"m 110 0 l 110 1002 l 616 1002 l 616 891 l 235 891 l 235 569 l 588 569 l 588 458 l 235 458 l 235 111 l 624 111 l 624 0 l 110 0 "},"Y":{"x_min":10.953125,"x_max":668.140625,"ha":680,"o":"m 541 1002 l 668 1002 l 400 381 l 400 0 l 275 0 l 275 381 l 10 1002 l 151 1002 l 342 517 l 541 1002 "},"\"":{"x_min":48,"x_max":293,"ha":341,"o":"m 211 1002 l 293 1002 l 293 715 l 211 715 l 211 1002 m 48 1002 l 130 1002 l 130 715 l 48 715 l 48 1002 "},"‹":{"x_min":32.671875,"x_max":262.6875,"ha":302,"o":"m 32 374 l 159 647 l 262 647 l 155 374 l 261 107 l 155 107 l 32 374 "},"˙":{"x_min":125,"x_max":253,"ha":378,"o":"m 253 819 l 125 819 l 125 963 l 253 963 l 253 819 "},"ê":{"x_min":87,"x_max":593,"ha":680,"o":"m 340 937 l 250 807 l 141 807 l 277 1002 l 402 1002 l 539 807 l 430 807 l 340 937 m 475 400 q 464 521 475 476 q 436 590 454 566 q 393 622 419 615 q 337 629 367 629 q 287 620 310 629 q 246 587 264 612 q 217 517 228 562 q 207 400 207 472 l 475 400 m 207 314 q 216 194 207 240 q 243 122 226 148 q 287 88 261 97 q 345 79 313 79 q 396 90 374 79 q 432 119 417 101 q 455 161 447 137 q 464 212 464 185 l 587 212 q 522 40 587 94 q 348 -14 457 -14 q 246 -2 294 -14 q 163 47 198 9 q 107 154 127 84 q 87 340 87 223 q 94 485 87 416 q 128 604 101 553 q 206 685 155 655 q 348 715 258 715 q 469 694 421 715 q 544 631 516 673 q 582 524 571 588 q 593 373 593 461 l 593 314 l 207 314 "},"Ï":{"x_min":5,"x_max":373,"ha":378,"o":"m 133 1121 l 5 1121 l 5 1265 l 133 1265 l 133 1121 m 373 1121 l 245 1121 l 245 1265 l 373 1265 l 373 1121 m 251 0 l 126 0 l 126 1002 l 251 1002 l 251 0 "},"„":{"x_min":85.75,"x_max":518.578125,"ha":604,"o":"m 144 122 l 291 122 l 179 -154 l 85 -154 l 144 122 m 371 122 l 518 122 l 406 -154 l 313 -154 l 371 122 "},"Â":{"x_min":20.421875,"x_max":811.21875,"ha":832,"o":"m 416 1238 l 326 1108 l 217 1108 l 353 1303 l 479 1303 l 615 1108 l 506 1108 l 416 1238 m 408 885 l 405 885 l 251 350 l 566 350 l 408 885 m 332 1002 l 491 1002 l 811 0 l 671 0 l 600 239 l 220 239 l 147 0 l 20 0 l 332 1002 "},"Í":{"x_min":82.09375,"x_max":351.359375,"ha":379,"o":"m 351 1303 l 173 1108 l 82 1108 l 203 1303 l 351 1303 m 252 0 l 127 0 l 127 1002 l 252 1002 l 252 0 "},"´":{"x_min":81.671875,"x_max":351.171875,"ha":378,"o":"m 351 1003 l 172 807 l 81 807 l 202 1003 l 351 1003 "},"ì":{"x_min":-11.171875,"x_max":258.71875,"ha":302,"o":"m 137 1002 l 258 807 l 167 807 l -11 1002 l 137 1002 m 95 0 l 95 701 l 207 701 l 207 0 l 95 0 "},"±":{"x_min":59,"x_max":623,"ha":682,"o":"m 59 86 l 623 86 l 623 0 l 59 0 l 59 86 m 299 701 l 383 701 l 383 476 l 623 476 l 623 390 l 383 390 l 383 165 l 299 165 l 299 390 l 59 390 l 59 476 l 299 476 l 299 701 "},"Ú":{"x_min":106,"x_max":724,"ha":832,"o":"m 578 1303 l 400 1108 l 308 1108 l 430 1303 l 578 1303 m 106 1002 l 231 1002 l 231 360 q 243 225 231 278 q 278 140 255 172 q 335 97 301 109 q 415 86 370 86 q 494 97 459 86 q 551 140 528 109 q 586 225 574 172 q 599 360 599 278 l 599 1002 l 724 1002 l 724 366 q 647 68 724 158 q 415 -21 571 -21 q 182 68 258 -21 q 106 366 106 158 l 106 1002 "},"|":{"x_min":128,"x_max":212,"ha":340,"o":"m 128 1041 l 212 1041 l 212 -347 l 128 -347 l 128 1041 "},"§":{"x_min":75,"x_max":528,"ha":604,"o":"m 295 394 q 325 406 306 396 q 362 431 344 416 q 394 468 380 446 q 408 517 408 489 q 394 565 408 546 q 362 595 381 584 q 324 612 344 606 q 291 624 303 618 q 266 613 283 621 q 231 590 249 605 q 200 555 214 575 q 187 505 187 534 q 195 458 187 476 q 219 430 204 441 q 254 411 234 419 q 295 394 274 403 m 94 126 q 119 117 103 123 q 158 104 136 110 q 207 91 179 97 q 269 86 235 86 q 315 90 292 86 q 357 107 338 95 q 388 136 376 119 q 400 179 400 154 q 376 238 400 216 q 316 276 352 260 q 237 304 279 291 q 159 338 196 317 q 98 391 122 359 q 75 476 75 423 q 86 537 75 510 q 117 586 98 564 q 161 624 136 607 q 215 655 187 641 q 127 717 161 681 q 93 818 93 753 q 114 911 93 873 q 168 975 135 950 q 243 1011 201 999 q 328 1023 285 1023 q 483 996 409 1023 l 483 879 q 410 904 447 892 q 334 916 372 916 q 295 910 315 916 q 258 894 275 904 q 231 867 242 884 q 221 828 221 850 q 243 771 221 792 q 298 735 265 750 q 370 707 331 720 q 442 674 409 693 q 497 623 474 655 q 520 542 520 592 q 479 428 520 476 q 380 360 438 380 l 380 358 q 436 336 409 351 q 484 301 463 321 q 516 252 504 280 q 528 191 528 224 q 506 94 528 134 q 450 28 485 53 q 369 -9 415 2 q 273 -21 323 -21 q 183 -13 228 -21 q 94 6 137 -5 l 94 126 "},"Ý":{"x_min":10.953125,"x_max":668.140625,"ha":680,"o":"m 502 1304 l 323 1108 l 232 1108 l 353 1304 l 502 1304 m 541 1002 l 668 1002 l 400 381 l 400 0 l 275 0 l 275 381 l 10 1002 l 151 1002 l 342 517 l 541 1002 "},"b":{"x_min":108,"x_max":598,"ha":681,"o":"m 222 378 q 222 285 222 338 q 233 188 222 234 q 269 110 244 142 q 346 79 295 79 q 427 104 399 79 q 468 168 455 130 q 482 251 482 206 q 482 337 482 297 q 477 460 482 408 q 458 549 472 513 q 417 603 443 585 q 346 621 391 621 q 274 596 300 621 q 235 535 248 571 q 222 456 222 498 q 222 378 222 413 m 220 0 l 108 0 l 108 1002 l 220 1002 l 220 630 l 224 630 q 289 693 252 671 q 376 715 326 715 q 507 680 460 715 q 575 592 553 646 q 598 471 598 538 q 598 338 598 403 q 579 154 598 223 q 529 47 560 84 q 458 -2 498 9 q 378 -14 419 -14 q 288 10 325 -14 q 222 83 251 34 l 220 83 l 220 0 "},"q":{"x_min":83,"x_max":573,"ha":681,"o":"m 331 79 q 405 104 378 79 q 445 165 431 128 q 458 243 458 201 q 458 320 458 285 q 458 412 458 360 q 447 509 458 463 q 411 587 436 555 q 334 619 385 619 q 254 594 282 619 q 213 530 226 569 q 200 446 200 491 q 200 362 200 401 q 200 238 200 291 q 214 150 200 185 q 257 97 229 115 q 331 79 285 79 m 461 701 l 573 701 l 573 -265 l 461 -265 l 461 71 l 456 71 q 391 7 428 29 q 304 -14 354 -14 q 173 20 220 -14 q 105 108 127 54 q 83 229 83 162 q 83 362 83 297 q 101 546 83 477 q 151 653 120 616 q 222 703 182 691 q 302 715 261 715 q 392 690 355 715 q 458 618 429 666 l 461 618 l 461 701 "},"Ö":{"x_min":106,"x_max":724,"ha":832,"o":"m 600 1120 l 472 1120 l 472 1264 l 600 1264 l 600 1120 m 361 1120 l 233 1120 l 233 1264 l 361 1264 l 361 1120 m 415 86 q 493 97 459 86 q 549 140 526 109 q 584 225 572 172 q 596 360 596 278 l 596 699 q 573 822 596 778 q 520 886 551 866 q 459 911 489 907 q 415 916 429 916 q 370 911 400 916 q 309 886 340 907 q 256 822 278 866 q 234 699 234 778 l 234 360 q 245 225 234 278 q 280 140 257 172 q 336 97 303 109 q 415 86 370 86 m 415 -21 q 182 68 258 -21 q 106 366 106 158 l 106 695 q 182 934 106 845 q 415 1023 258 1023 q 647 934 571 1023 q 724 695 724 845 l 724 366 q 647 68 724 158 q 415 -21 571 -21 "},"ﬂ":{"x_min":12,"x_max":585,"ha":680,"o":"m 585 0 l 473 0 l 473 1002 l 585 1002 l 585 0 m 118 701 l 118 837 q 135 922 118 890 q 179 974 152 955 q 242 998 206 992 q 315 1005 278 1005 q 345 1005 333 1005 q 369 1002 356 1005 l 369 922 q 296 915 324 922 q 254 893 269 908 q 234 859 239 879 q 230 819 230 840 l 230 701 l 369 701 l 369 615 l 230 615 l 230 0 l 118 0 l 118 615 l 12 615 l 12 701 l 118 701 "},"z":{"x_min":48,"x_max":482,"ha":530,"o":"m 473 596 l 168 93 l 482 93 l 482 0 l 48 0 l 48 106 l 347 605 l 347 608 l 63 608 l 63 701 l 473 701 l 473 596 "},"™":{"x_min":-4,"x_max":1075,"ha":1123,"o":"m 415 1002 l 415 924 l 253 924 l 253 400 l 158 400 l 158 924 l -4 924 l -4 1002 l 415 1002 m 1075 401 l 980 401 l 980 874 l 977 874 l 813 401 l 736 401 l 580 874 l 578 874 l 578 401 l 483 401 l 483 1002 l 633 1002 l 781 555 l 783 555 l 926 1002 l 1075 1002 l 1075 401 "},"ã":{"x_min":88,"x_max":573.890625,"ha":680,"o":"m 571 963 q 557 906 568 934 q 529 857 546 878 q 486 824 511 837 q 429 812 462 812 q 382 820 406 812 q 331 838 357 828 q 281 857 306 849 q 234 865 257 865 q 192 845 210 865 q 171 802 174 825 l 108 802 q 148 908 115 865 q 250 952 182 952 q 303 944 277 952 q 352 927 329 936 q 395 908 375 916 q 432 901 416 901 q 501 963 496 901 l 571 963 m 450 347 q 366 347 410 347 q 284 334 321 347 q 223 293 247 321 q 200 208 200 264 q 225 118 200 157 q 306 79 251 79 q 358 89 331 79 q 405 128 384 99 q 438 210 426 157 q 450 347 450 262 m 451 101 l 449 101 q 382 13 423 40 q 276 -14 341 -14 q 185 3 221 -14 q 127 51 149 21 q 96 125 105 82 q 88 218 88 168 q 122 344 88 298 q 209 410 156 389 q 326 432 262 432 q 449 432 390 432 q 449 502 449 467 q 438 565 449 537 q 403 611 427 593 q 334 629 379 629 q 248 594 276 629 q 225 504 220 559 l 106 504 q 165 668 106 622 q 337 715 225 715 q 448 698 404 715 q 516 653 491 681 q 552 586 542 624 q 563 504 563 548 l 563 166 q 563 82 563 124 q 573 0 563 40 l 451 0 l 451 101 "},"æ":{"x_min":91,"x_max":972,"ha":1059,"o":"m 849 419 q 844 492 849 455 q 825 560 839 530 q 783 609 811 590 q 712 629 756 629 q 673 622 695 629 q 630 594 651 616 q 596 531 610 573 q 582 419 582 489 l 849 419 m 466 332 q 381 332 426 332 q 300 320 337 332 q 239 279 263 308 q 215 195 215 251 q 239 111 215 144 q 321 79 264 79 q 373 87 347 79 q 420 121 399 95 q 453 198 441 148 q 466 332 466 249 m 584 333 q 584 252 584 295 q 595 169 584 208 q 634 104 607 130 q 713 79 661 79 q 812 120 784 79 q 841 225 841 161 l 964 225 q 956 145 964 187 q 922 67 949 102 q 845 8 895 31 q 707 -14 795 -14 q 645 -6 676 -14 q 587 16 613 1 q 540 55 560 31 q 510 112 519 79 q 421 14 480 42 q 294 -14 362 -14 q 143 41 195 -14 q 91 197 91 96 q 125 331 91 286 q 214 395 160 376 q 335 414 269 414 q 464 414 401 414 l 464 486 q 435 593 464 557 q 336 629 406 629 q 251 594 278 629 q 228 504 223 559 l 109 504 q 168 668 109 622 q 339 715 228 715 q 400 711 369 715 q 457 697 430 708 q 504 667 484 687 q 536 614 525 647 l 538 614 q 565 660 546 641 q 606 692 583 680 q 657 709 630 703 q 711 715 684 715 q 799 706 752 715 q 886 661 846 698 q 949 547 926 624 q 972 333 972 470 l 584 333 "},"®":{"x_min":33,"x_max":1056,"ha":1089,"o":"m 449 546 l 571 546 q 636 574 615 546 q 658 642 658 602 q 653 675 658 659 q 639 704 649 691 q 612 725 629 717 q 571 734 596 734 l 449 734 l 449 546 m 449 199 l 354 199 l 354 801 l 588 801 q 661 787 630 801 q 713 753 693 774 q 743 706 733 733 q 753 651 753 679 q 717 561 753 598 q 625 512 682 523 l 625 509 q 671 499 652 507 q 702 475 690 491 q 720 430 714 458 q 726 356 726 402 q 728 326 726 347 q 734 282 731 305 q 741 236 737 259 q 751 200 746 213 l 658 200 q 639 285 639 231 q 633 399 639 338 q 620 437 630 423 q 596 458 610 451 q 568 466 582 465 q 544 468 554 468 l 449 468 l 449 199 m 545 945 q 375 910 454 945 q 236 815 295 875 q 143 673 177 754 q 109 501 109 592 q 143 327 109 408 q 236 186 177 247 q 375 91 295 126 q 545 57 454 57 q 715 91 637 57 q 853 186 794 126 q 945 327 911 247 q 980 501 980 408 q 945 673 980 592 q 853 815 911 754 q 715 910 794 875 q 545 945 637 945 m 545 1023 q 744 982 651 1023 q 906 870 836 941 q 1015 705 975 800 q 1056 502 1056 610 q 1015 297 1056 392 q 906 131 975 202 q 744 19 836 60 q 545 -21 651 -21 q 346 19 439 -21 q 183 131 253 60 q 73 297 113 202 q 33 502 33 392 q 73 705 33 610 q 183 870 113 800 q 346 982 253 941 q 545 1023 439 1023 "},"É":{"x_min":110,"x_max":624.28125,"ha":680,"o":"m 501 1303 l 323 1108 l 232 1108 l 353 1303 l 501 1303 m 110 0 l 110 1002 l 616 1002 l 616 891 l 235 891 l 235 569 l 588 569 l 588 458 l 235 458 l 235 111 l 624 111 l 624 0 l 110 0 "},"~":{"x_min":59.890625,"x_max":622.03125,"ha":681,"o":"m 219 462 q 283 447 249 462 q 349 413 317 432 q 413 379 383 394 q 465 364 443 364 q 500 375 484 364 q 531 403 517 386 q 556 440 545 420 q 575 480 567 460 l 622 414 q 594 358 609 386 q 558 308 578 330 q 515 273 539 286 q 464 260 492 260 q 428 266 449 260 q 387 283 408 273 q 346 303 366 293 q 313 321 326 314 q 267 344 291 332 q 219 356 243 356 q 180 344 197 356 q 149 314 163 332 q 125 273 136 296 q 106 230 115 251 l 59 297 q 87 356 72 326 q 122 409 103 385 q 165 447 141 432 q 219 462 189 462 "},"³":{"x_min":1,"x_max":356,"ha":361,"o":"m 128 725 q 216 749 184 725 q 248 824 248 774 q 231 884 248 858 q 169 910 215 910 q 109 882 123 910 q 96 821 96 855 l 9 821 q 47 937 9 895 q 171 979 86 979 q 296 942 249 979 q 343 829 343 905 q 328 762 343 787 q 292 723 313 737 q 250 703 272 709 q 215 694 228 697 l 215 691 q 356 545 356 674 q 302 419 356 460 q 159 379 248 379 q 61 401 95 379 q 14 452 28 423 q 1 510 1 481 q 1 551 1 538 l 88 551 q 91 514 88 531 q 102 484 94 497 q 126 464 111 472 q 167 457 142 457 q 241 481 221 457 q 261 547 261 506 q 231 636 261 612 q 128 661 201 661 l 128 725 "},"¡":{"x_min":163,"x_max":291,"ha":453,"o":"m 291 593 l 163 593 l 163 737 l 291 737 l 291 593 m 288 506 l 288 -265 l 165 -265 l 165 506 l 288 506 "},"[":{"x_min":95,"x_max":325.421875,"ha":379,"o":"m 95 -164 l 95 1050 l 321 1050 l 321 972 l 207 972 l 207 -86 l 325 -86 l 325 -164 l 95 -164 "},"L":{"x_min":110,"x_max":595.703125,"ha":604,"o":"m 110 0 l 110 1002 l 235 1002 l 235 111 l 595 111 l 595 0 l 110 0 "}," ":{"x_min":0,"x_max":0,"ha":302},"%":{"x_min":95,"x_max":962,"ha":1059,"o":"m 787 431 q 741 419 757 431 q 717 384 725 407 q 710 326 710 361 q 710 244 710 291 q 710 161 710 196 q 717 103 710 126 q 741 68 725 80 q 787 57 757 57 q 833 68 817 57 q 857 103 849 80 q 865 161 865 126 q 865 244 865 196 q 865 326 865 291 q 857 384 865 361 q 833 419 849 407 q 787 431 817 431 m 269 945 q 223 933 239 945 q 199 898 207 921 q 192 840 192 875 q 192 758 192 805 q 192 675 192 710 q 199 617 192 640 q 223 582 207 594 q 269 571 239 571 q 315 582 299 571 q 339 617 331 594 q 347 675 347 640 q 347 758 347 710 q 347 840 347 805 q 339 898 347 875 q 315 933 331 921 q 269 945 299 945 m 337 -49 l 251 -49 l 715 1051 l 803 1051 l 337 -49 m 787 509 q 884 485 848 509 q 936 423 919 461 q 957 337 953 385 q 962 241 962 289 q 957 144 962 191 q 936 60 953 96 q 884 1 919 23 q 787 -21 848 -21 q 690 1 726 -21 q 638 60 655 23 q 617 144 621 96 q 613 241 613 191 q 617 337 613 289 q 638 423 621 385 q 690 485 655 461 q 787 509 726 509 m 269 1023 q 366 999 330 1023 q 418 937 401 975 q 439 851 435 899 q 444 755 444 803 q 439 658 444 705 q 418 574 435 610 q 366 515 401 537 q 269 493 330 493 q 172 515 208 493 q 120 574 137 537 q 99 658 103 610 q 95 755 95 705 q 99 851 95 803 q 120 937 103 899 q 172 999 137 975 q 269 1023 208 1023 "},"P":{"x_min":127,"x_max":692,"ha":757,"o":"m 252 553 l 389 553 q 438 557 408 553 q 496 580 468 562 q 544 631 524 597 q 564 723 564 665 q 546 814 564 780 q 504 864 528 847 q 457 887 480 882 q 425 892 434 892 l 252 892 l 252 553 m 127 0 l 127 1003 l 418 1003 q 516 991 467 1003 q 604 948 565 979 q 667 861 642 916 q 692 716 692 805 q 663 577 692 630 q 592 494 634 523 q 502 453 550 464 q 416 442 455 442 l 252 442 l 252 0 l 127 0 "},"À":{"x_min":20.421875,"x_max":811.21875,"ha":832,"o":"m 402 1303 l 524 1108 l 432 1108 l 254 1303 l 402 1303 m 408 885 l 405 885 l 251 350 l 566 350 l 408 885 m 332 1002 l 491 1002 l 811 0 l 671 0 l 600 239 l 220 239 l 147 0 l 20 0 l 332 1002 "},"_":{"x_min":0,"x_max":681,"ha":681,"o":"m 0 -174 l 0 -105 l 681 -105 l 681 -174 l 0 -174 "},"ñ":{"x_min":94,"x_max":583,"ha":681,"o":"m 572 964 q 558 906 569 934 q 529 858 547 878 q 487 824 512 837 q 430 812 463 812 q 382 820 407 812 q 332 838 358 828 q 282 857 306 849 q 234 865 257 865 q 192 845 211 865 q 171 802 174 825 l 109 802 q 149 908 115 865 q 250 952 182 952 q 303 944 277 952 q 352 927 329 936 q 396 908 375 916 q 432 901 416 901 q 502 964 496 901 l 572 964 m 471 0 l 471 486 q 465 538 471 513 q 446 582 460 563 q 409 611 432 601 q 350 621 385 621 q 276 603 303 621 q 234 554 249 584 q 214 488 219 524 q 210 415 210 451 l 210 0 l 94 0 l 94 555 q 94 628 94 591 q 94 701 94 664 l 210 701 l 210 611 l 215 611 q 290 692 248 670 q 399 715 332 715 q 489 699 453 715 q 546 652 525 683 q 574 579 566 621 q 583 485 583 537 l 583 0 l 471 0 "},"+":{"x_min":59,"x_max":623,"ha":682,"o":"m 299 701 l 383 701 l 383 394 l 623 394 l 623 308 l 383 308 l 383 0 l 299 0 l 299 308 l 59 308 l 59 394 l 299 394 l 299 701 "},"‚":{"x_min":47.640625,"x_max":253.171875,"ha":302,"o":"m 106 122 l 253 122 l 141 -154 l 47 -154 l 106 122 "},"½":{"x_min":27.4375,"x_max":855,"ha":907,"o":"m 215 391 l 120 391 l 120 875 l 27 817 l 27 899 q 49 910 35 902 q 77 929 62 918 q 107 950 92 939 q 130 969 121 962 l 215 969 l 215 391 m 47 -37 l 642 1002 l 727 1002 l 133 -37 l 47 -37 m 524 0 l 524 74 q 635 214 590 159 q 707 307 680 269 q 746 375 735 345 q 757 439 757 405 q 738 488 757 468 q 680 509 720 509 q 633 480 645 509 q 621 422 621 452 l 526 422 q 532 485 524 455 q 558 537 540 514 q 606 573 577 560 q 675 587 635 587 q 810 550 768 587 q 852 435 852 514 q 839 351 852 387 q 799 277 826 315 q 731 192 771 240 q 635 74 690 144 l 855 74 l 855 0 l 524 0 "},"Æ":{"x_min":20.640625,"x_max":1076,"ha":1135,"o":"m 535 900 l 532 900 l 302 350 l 610 350 l 535 900 m 20 0 l 452 1002 l 1062 1002 l 1062 891 l 657 891 l 699 569 l 1051 569 l 1051 458 l 718 458 l 766 111 l 1076 111 l 1076 0 l 659 0 l 624 239 l 252 239 l 152 0 l 20 0 "},"Ë":{"x_min":110,"x_max":624.28125,"ha":680,"o":"m 284 1121 l 156 1121 l 156 1265 l 284 1265 l 284 1121 m 524 1121 l 396 1121 l 396 1265 l 524 1265 l 524 1121 m 110 0 l 110 1002 l 616 1002 l 616 891 l 235 891 l 235 569 l 588 569 l 588 458 l 235 458 l 235 111 l 624 111 l 624 0 l 110 0 "},"'":{"x_min":129,"x_max":211,"ha":340,"o":"m 129 1002 l 211 1002 l 211 715 l 129 715 l 129 1002 "},"Š":{"x_min":83,"x_max":675,"ha":757,"o":"m 576 1304 l 440 1108 l 315 1108 l 179 1304 l 288 1304 l 378 1173 l 467 1304 l 576 1304 m 207 299 l 207 269 q 221 184 207 218 q 259 129 235 149 q 312 99 283 108 q 371 90 341 90 q 440 98 408 90 q 496 126 473 106 q 533 176 519 145 q 547 252 547 208 q 514 346 547 308 q 432 414 481 383 q 326 472 383 444 q 220 537 269 500 q 138 625 171 575 q 106 751 106 676 q 127 868 106 817 q 187 953 149 919 q 279 1005 226 988 q 392 1023 332 1023 q 597 953 526 1023 q 669 731 669 883 l 536 731 q 504 862 536 812 q 384 912 472 912 q 329 904 355 912 q 281 879 303 896 q 246 833 259 862 q 234 765 234 805 q 266 673 234 709 q 348 606 299 636 q 454 548 397 576 q 560 482 511 519 q 642 391 609 444 q 675 257 675 337 q 649 124 675 178 q 583 38 624 71 q 486 -8 541 5 q 370 -22 431 -22 q 247 -4 297 -22 q 165 39 198 12 q 115 102 133 66 q 90 173 98 137 q 83 242 83 208 q 83 299 83 275 l 207 299 "},"ª":{"x_min":24,"x_max":377.53125,"ha":407,"o":"m 279 802 q 221 802 250 802 q 168 795 192 802 q 129 770 144 788 q 114 719 114 753 q 128 666 114 689 q 178 643 143 643 q 213 649 194 643 q 247 672 232 655 q 270 720 262 689 q 279 802 279 751 m 280 655 l 277 655 q 231 602 262 619 q 158 586 200 586 q 55 624 87 586 q 24 726 24 663 q 48 801 24 773 q 110 843 72 829 q 192 858 147 858 q 277 858 237 858 q 277 896 277 876 q 268 931 277 916 q 243 956 260 946 q 197 966 226 966 q 138 948 160 966 q 119 897 116 930 l 34 897 q 80 995 34 967 q 198 1023 126 1023 q 279 1013 246 1023 q 331 986 312 1003 q 359 946 351 968 q 368 897 368 923 l 368 693 q 370 643 368 668 q 377 594 373 617 l 280 594 l 280 655 "},"Œ":{"x_min":98,"x_max":1088,"ha":1134,"o":"m 573 891 l 393 891 q 321 879 352 891 q 268 835 289 867 q 236 747 247 803 q 226 601 226 691 l 226 378 q 233 269 226 319 q 260 185 240 220 q 315 130 280 149 q 404 111 349 111 l 573 111 l 573 891 m 1079 891 l 698 891 l 698 569 l 1051 569 l 1051 458 l 698 458 l 698 111 l 1088 111 l 1088 0 l 438 0 q 285 20 349 0 q 179 85 220 40 q 117 201 137 130 q 98 373 98 272 l 98 606 q 117 791 98 716 q 176 913 137 867 q 271 981 215 960 q 401 1002 327 1002 l 1079 1002 l 1079 891 "},"˛":{"x_min":44,"x_max":334.296875,"ha":379,"o":"m 334 -234 q 265 -255 304 -245 q 188 -265 226 -265 q 138 -258 163 -265 q 92 -235 113 -251 q 57 -196 71 -220 q 44 -137 44 -172 q 60 -88 44 -111 q 101 -48 76 -66 q 155 -17 127 -30 q 208 1 184 -5 l 289 1 l 289 0 q 189 -55 222 -23 q 156 -117 156 -88 q 174 -170 156 -153 q 218 -187 192 -187 q 269 -180 242 -187 q 334 -159 295 -173 l 334 -234 "},"ð":{"x_min":79,"x_max":602,"ha":681,"o":"m 340 78 q 412 93 384 78 q 456 145 439 109 q 478 239 472 181 q 484 380 484 297 q 474 495 484 450 q 445 565 464 539 q 399 599 426 590 q 340 609 373 609 q 281 599 307 609 q 235 565 254 590 q 206 495 216 539 q 196 380 196 450 q 202 239 196 297 q 224 145 208 181 q 268 93 241 109 q 340 78 296 78 m 148 832 l 261 900 q 201 947 230 928 q 147 980 172 966 l 221 1045 q 354 956 290 1010 l 480 1032 l 521 987 l 397 913 q 486 807 448 862 q 550 684 524 752 q 589 530 576 616 q 602 333 602 445 q 581 150 602 219 q 525 45 561 81 q 442 -2 490 9 q 340 -14 394 -14 q 238 -2 286 -14 q 155 45 190 9 q 99 150 119 81 q 79 333 79 219 q 85 475 79 408 q 117 592 92 542 q 192 671 143 642 q 324 701 241 701 q 393 688 367 701 q 445 649 419 675 l 448 652 q 402 746 433 698 q 310 862 371 795 l 190 791 l 148 832 "},"T":{"x_min":19,"x_max":661,"ha":680,"o":"m 661 1002 l 661 891 l 403 891 l 403 0 l 278 0 l 278 891 l 19 891 l 19 1002 l 661 1002 "},"š":{"x_min":63,"x_max":541,"ha":605,"o":"m 501 1002 l 365 807 l 240 807 l 104 1002 l 213 1002 l 302 872 l 392 1002 l 501 1002 m 541 199 q 522 101 541 141 q 472 35 504 60 q 396 -2 440 9 q 302 -14 352 -14 q 126 39 190 -14 q 63 214 63 93 l 191 214 q 193 175 191 198 q 205 131 195 152 q 240 94 216 109 q 305 79 263 79 q 389 105 355 79 q 423 185 423 131 q 398 239 423 216 q 335 282 373 262 q 252 322 297 302 q 169 369 207 342 q 106 433 131 396 q 80 523 80 470 q 90 584 80 551 q 126 646 99 617 q 198 695 152 676 q 316 715 244 715 q 403 703 362 715 q 474 667 443 691 q 520 605 504 644 q 537 516 537 567 l 412 516 q 384 600 412 571 q 303 629 356 629 q 228 604 258 629 q 198 534 198 580 q 223 481 198 503 q 286 439 248 459 q 369 401 324 420 q 452 354 414 381 q 515 290 490 327 q 541 199 541 252 "},"Þ":{"x_min":127,"x_max":692,"ha":757,"o":"m 252 383 l 389 383 q 438 387 408 383 q 496 410 468 392 q 544 461 524 427 q 564 553 564 495 q 546 644 564 610 q 504 694 528 677 q 457 717 480 712 q 425 722 434 722 l 252 722 l 252 383 m 127 1002 l 252 1002 l 252 833 l 418 833 q 516 821 467 833 q 604 778 565 809 q 667 691 642 746 q 692 546 692 635 q 663 407 692 460 q 592 324 634 353 q 502 283 550 294 q 416 272 455 272 l 252 272 l 252 0 l 127 0 l 127 1002 "},"j":{"x_min":12,"x_max":213,"ha":301,"o":"m 88 1002 l 213 1002 l 213 880 l 88 880 l 88 1002 m 95 701 l 207 701 l 207 -97 q 199 -169 207 -138 q 170 -222 192 -201 q 111 -254 149 -244 q 12 -265 73 -265 l 12 -168 q 44 -165 29 -168 q 71 -156 59 -163 q 88 -137 82 -149 q 95 -102 95 -124 l 95 701 "},"1":{"x_min":126.4375,"x_max":393,"ha":604,"o":"m 393 0 l 268 0 l 268 823 l 126 726 l 126 848 q 159 868 138 854 q 203 899 179 882 q 248 934 227 916 q 285 964 270 951 l 393 964 l 393 0 "},"›":{"x_min":39.46875,"x_max":269.5,"ha":302,"o":"m 40 107 l 147 374 l 39 647 l 142 647 l 269 374 l 147 107 l 40 107 "},"ı":{"x_min":95,"x_max":207,"ha":302,"o":"m 95 0 l 95 701 l 207 701 l 207 0 l 95 0 "},"ä":{"x_min":88,"x_max":573.890625,"ha":680,"o":"m 524 819 l 396 819 l 396 963 l 524 963 l 524 819 m 284 819 l 156 819 l 156 963 l 284 963 l 284 819 m 450 347 q 366 347 410 347 q 284 334 321 347 q 223 293 247 321 q 200 208 200 264 q 225 118 200 157 q 306 79 251 79 q 358 89 331 79 q 405 128 384 99 q 438 210 426 157 q 450 347 450 262 m 451 101 l 449 101 q 382 13 423 40 q 276 -14 341 -14 q 185 3 221 -14 q 127 51 149 21 q 96 125 105 82 q 88 218 88 168 q 122 344 88 298 q 209 410 156 389 q 326 432 262 432 q 449 432 390 432 q 449 502 449 467 q 438 565 449 537 q 403 611 427 593 q 333 629 379 629 q 248 594 276 629 q 225 503 220 559 l 106 503 q 165 668 106 621 q 337 715 225 715 q 448 698 404 715 q 516 653 491 681 q 552 586 542 624 q 563 503 563 548 l 563 166 q 563 82 563 124 q 573 0 563 40 l 451 0 l 451 101 "},"<":{"x_min":57,"x_max":625,"ha":681,"o":"m 625 83 l 625 -18 l 57 306 l 57 395 l 625 715 l 625 613 l 163 351 l 625 83 "},"£":{"x_min":-5,"x_max":591,"ha":605,"o":"m -5 580 l 102 580 l 102 692 q 102 727 102 702 q 106 784 102 752 q 122 850 110 816 q 162 913 135 884 q 234 960 189 941 q 348 979 279 979 q 527 915 464 979 q 591 729 591 851 l 458 729 q 453 783 458 758 q 436 829 448 809 q 402 860 423 849 q 347 872 381 872 q 275 856 299 872 q 240 815 250 840 q 230 759 230 789 q 230 698 230 728 l 230 580 l 417 580 l 417 469 l 229 469 l 229 111 l 583 111 l 583 0 l 3 0 l 3 111 l 104 111 l 104 469 l -5 469 l -5 580 "},"¹":{"x_min":68.453125,"x_max":256,"ha":362,"o":"m 256 392 l 161 392 l 161 876 l 68 818 l 68 900 q 90 911 76 903 q 118 930 103 919 q 148 951 133 940 q 171 970 162 963 l 256 970 l 256 392 "},"t":{"x_min":-3,"x_max":374.09375,"ha":378,"o":"m 110 701 l 110 835 l 222 887 l 222 701 l 371 701 l 371 615 l 223 615 l 223 186 q 223 151 223 169 q 232 118 223 133 q 263 94 242 104 q 323 85 284 85 q 342 86 330 85 q 374 90 354 87 l 374 2 q 318 -4 346 0 q 263 -8 290 -8 q 146 23 183 -8 q 110 116 110 55 l 110 615 l -3 615 l -3 701 l 110 701 "},"¬":{"x_min":58.890625,"x_max":622,"ha":681,"o":"m 538 447 l 58 447 l 58 533 l 622 533 l 622 162 l 538 162 l 538 447 "},"ù":{"x_min":102,"x_max":580,"ha":681,"o":"m 327 1001 l 448 807 l 357 807 l 178 1001 l 327 1001 m 466 701 l 580 701 l 580 146 q 580 72 580 109 q 580 0 580 35 l 466 0 l 466 85 l 461 85 q 388 10 434 35 q 287 -14 341 -14 q 149 31 197 -14 q 102 166 102 76 l 102 701 l 214 701 l 214 215 q 242 112 214 151 q 331 73 271 73 q 377 82 352 73 q 421 110 401 91 q 453 161 440 130 q 466 236 466 191 l 466 701 "},"W":{"x_min":8.171875,"x_max":1200.5,"ha":1210,"o":"m 8 1002 l 141 1002 l 326 133 l 329 133 l 526 1002 l 688 1002 l 867 133 l 869 133 l 1069 1002 l 1200 1002 l 940 0 l 788 0 l 601 869 l 598 869 l 400 0 l 247 0 l 8 1002 "},"ï":{"x_min":-33,"x_max":335,"ha":302,"o":"m 95 819 l -33 819 l -33 963 l 95 963 l 95 819 m 335 819 l 207 819 l 207 963 l 335 963 l 335 819 m 95 0 l 95 701 l 207 701 l 207 0 l 95 0 "},">":{"x_min":56,"x_max":624,"ha":681,"o":"m 517 351 l 56 613 l 56 715 l 624 395 l 624 306 l 56 -18 l 56 83 l 517 351 "},"v":{"x_min":19.0625,"x_max":583.921875,"ha":604,"o":"m 19 701 l 144 701 l 298 107 l 300 107 l 466 701 l 583 701 l 368 0 l 223 0 l 19 701 "},"û":{"x_min":102,"x_max":580,"ha":681,"o":"m 340 936 l 250 807 l 141 807 l 278 1001 l 403 1001 l 539 807 l 430 807 l 340 936 m 466 701 l 580 701 l 580 146 q 580 72 580 109 q 580 0 580 35 l 466 0 l 466 85 l 461 85 q 388 10 434 35 q 287 -14 341 -14 q 149 31 197 -14 q 102 166 102 76 l 102 701 l 214 701 l 214 215 q 242 112 214 151 q 331 73 271 73 q 377 82 352 73 q 421 110 401 91 q 453 161 440 130 q 466 236 466 191 l 466 701 "},"Ò":{"x_min":106,"x_max":724,"ha":832,"o":"m 402 1303 l 523 1108 l 432 1108 l 254 1303 l 402 1303 m 415 86 q 493 97 459 86 q 549 140 526 109 q 584 225 572 172 q 596 360 596 278 l 596 699 q 573 822 596 778 q 520 886 551 866 q 459 911 489 907 q 415 916 429 916 q 370 911 400 916 q 309 886 340 907 q 256 822 278 866 q 234 699 234 778 l 234 360 q 245 225 234 278 q 280 140 257 172 q 336 97 303 109 q 415 86 370 86 m 415 -21 q 182 68 258 -21 q 106 366 106 158 l 106 695 q 182 934 106 845 q 415 1023 258 1023 q 647 934 571 1023 q 724 695 724 845 l 724 366 q 647 68 724 158 q 415 -21 571 -21 "},"&":{"x_min":73,"x_max":889.09375,"ha":907,"o":"m 396 633 q 433 667 414 648 q 469 710 452 687 q 495 758 485 733 q 506 813 506 784 q 477 896 506 866 q 398 926 448 926 q 319 894 350 926 q 289 813 289 863 q 300 763 289 787 q 329 717 312 739 q 364 673 346 694 q 396 633 383 652 m 359 498 q 298 453 327 476 q 248 405 270 431 q 213 345 226 378 q 201 269 201 312 q 215 194 201 229 q 257 136 230 160 q 321 99 284 112 q 402 86 358 86 q 516 108 469 86 q 602 185 564 130 l 359 498 m 668 102 q 548 6 613 33 q 395 -21 482 -21 q 270 -3 329 -21 q 167 49 211 13 q 98 139 123 85 q 73 266 73 192 q 89 372 73 328 q 134 451 105 416 q 203 514 164 485 q 290 571 242 542 q 246 626 268 596 q 204 688 223 656 q 173 755 185 720 q 161 824 161 789 q 181 916 161 878 q 235 978 201 955 q 313 1012 270 1002 q 403 1023 357 1023 q 492 1011 449 1023 q 565 974 534 999 q 615 911 597 949 q 634 820 634 873 q 619 743 634 780 q 580 673 604 706 q 528 609 557 639 q 469 553 499 578 l 660 305 q 672 356 668 330 q 677 416 677 383 q 677 491 677 449 q 677 590 677 533 l 787 590 q 787 449 787 509 q 778 346 787 390 q 757 271 770 302 q 731 215 744 240 l 889 0 l 747 0 l 668 102 "},"":{"x_min":9.421875,"x_max":577,"ha":604,"o":"m 87 436 l 87 527 l 9 527 l 24 621 l 90 621 l 90 688 q 149 910 90 835 q 337 985 209 985 q 512 924 449 985 q 576 734 576 864 l 455 734 q 427 835 455 797 q 338 873 399 873 q 244 828 272 873 q 217 702 217 783 l 217 621 l 434 621 l 419 527 l 215 527 l 215 436 l 403 436 l 388 342 l 216 342 l 216 261 q 245 129 216 173 q 344 85 274 85 q 432 117 405 85 q 459 225 459 150 l 577 225 q 337 -25 577 -25 q 148 48 209 -25 q 88 259 88 121 l 88 342 l 9 342 l 24 436 l 87 436 "},"˝":{"x_min":54.4375,"x_max":573.03125,"ha":604,"o":"m 573 1003 l 394 807 l 303 807 l 424 1003 l 573 1003 m 323 1003 l 145 807 l 54 807 l 175 1003 l 323 1003 "},"Ð":{"x_min":18,"x_max":722,"ha":832,"o":"m 238 111 l 356 111 q 467 124 421 111 q 541 173 513 138 q 582 265 569 208 q 595 410 595 323 l 595 613 q 547 827 595 764 q 402 891 500 891 l 238 891 l 238 586 l 444 586 l 444 508 l 238 508 l 238 111 m 113 508 l 18 508 l 18 586 l 113 586 l 113 1002 l 416 1002 q 577 965 510 1002 q 681 849 644 929 q 704 768 696 817 q 717 671 713 720 q 722 584 722 623 q 722 532 722 545 q 708 275 722 371 q 663 129 694 179 q 546 31 623 63 q 339 0 468 0 l 113 0 l 113 508 "},"I":{"x_min":127,"x_max":252,"ha":379,"o":"m 252 0 l 127 0 l 127 1002 l 252 1002 l 252 0 "},"ˉ":{"x_min":1,"x_max":377,"ha":378,"o":"m 377 922 l 377 844 l 1 844 l 1 922 l 377 922 "},"G":{"x_min":98,"x_max":714,"ha":831,"o":"m 581 734 q 541 869 581 822 q 406 916 502 916 q 362 911 391 916 q 301 886 332 907 q 248 822 270 866 q 226 699 226 778 l 226 360 q 237 225 226 278 q 272 140 249 172 q 328 97 295 109 q 407 86 362 86 q 519 100 475 86 q 583 130 563 115 l 583 430 l 401 430 l 401 541 l 708 541 l 708 54 q 574 0 646 20 q 407 -21 502 -21 q 174 68 250 -21 q 98 366 98 158 l 98 695 q 173 934 98 845 q 405 1023 249 1023 q 638 957 563 1023 q 714 734 714 891 l 581 734 "},"`":{"x_min":27.21875,"x_max":296.71875,"ha":378,"o":"m 175 1003 l 296 807 l 205 807 l 27 1003 l 175 1003 "},"·":{"x_min":87,"x_max":215,"ha":302,"o":"m 215 279 l 87 279 l 87 423 l 215 423 l 215 279 "},"r":{"x_min":102,"x_max":429.0625,"ha":454,"o":"m 214 596 l 216 596 q 254 659 234 635 q 299 695 273 683 q 356 711 324 708 q 429 715 388 715 l 429 597 q 414 599 422 598 q 399 601 405 600 q 384 603 392 602 q 369 604 377 604 q 292 587 322 604 q 245 544 263 570 q 220 483 227 518 q 214 414 214 448 l 214 0 l 102 0 l 102 701 l 214 701 l 214 596 "},"¿":{"x_min":69,"x_max":529,"ha":604,"o":"m 370 593 l 242 593 l 242 737 l 370 737 l 370 593 m 362 324 q 336 239 362 279 q 279 156 310 199 q 222 61 248 112 q 197 -56 197 11 q 203 -104 197 -80 q 221 -147 209 -127 q 253 -180 233 -167 q 299 -192 272 -192 q 356 -172 336 -192 q 387 -123 377 -152 q 398 -61 398 -94 q 398 0 398 -27 l 529 0 q 517 -116 529 -63 q 478 -206 505 -169 q 404 -265 450 -244 q 290 -286 358 -286 q 126 -222 184 -286 q 69 -54 69 -159 q 82 49 69 4 q 115 130 96 94 q 159 196 135 166 q 203 252 183 226 q 236 303 222 279 q 250 354 250 327 l 250 483 l 362 483 l 362 324 "},"ý":{"x_min":10.890625,"x_max":593.4375,"ha":604,"o":"m 464 1003 l 285 807 l 194 807 l 315 1003 l 464 1003 m 304 131 l 307 131 l 472 701 l 593 701 l 281 -265 l 166 -265 l 243 0 l 10 701 l 140 701 l 304 131 "},"x":{"x_min":8.171875,"x_max":594.8125,"ha":604,"o":"m 594 0 l 447 0 l 288 287 l 140 0 l 8 0 l 221 366 l 25 701 l 168 701 l 299 449 l 438 701 l 573 701 l 367 366 l 594 0 "},"è":{"x_min":87,"x_max":593,"ha":680,"o":"m 326 1002 l 447 807 l 356 807 l 178 1002 l 326 1002 m 475 400 q 464 521 475 476 q 436 590 454 566 q 393 622 419 615 q 337 629 367 629 q 287 620 310 629 q 246 587 264 612 q 217 517 228 562 q 207 400 207 472 l 475 400 m 207 314 q 216 194 207 240 q 243 122 226 148 q 287 88 261 97 q 345 79 313 79 q 396 90 374 79 q 432 119 417 101 q 455 161 447 137 q 464 212 464 185 l 587 212 q 522 40 587 94 q 348 -14 457 -14 q 246 -2 294 -14 q 163 47 198 9 q 107 154 127 84 q 87 340 87 223 q 94 485 87 416 q 128 604 101 553 q 206 685 155 655 q 348 715 258 715 q 469 694 421 715 q 544 631 516 673 q 582 524 571 588 q 593 373 593 461 l 593 314 l 207 314 "},"º":{"x_min":27,"x_max":381,"ha":408,"o":"m 204 643 q 249 652 232 643 q 275 683 266 662 q 287 740 284 705 q 291 827 291 776 q 285 897 291 870 q 268 939 280 924 q 240 960 257 954 q 204 966 224 966 q 167 960 183 966 q 139 939 150 954 q 122 897 127 924 q 117 827 117 870 q 120 740 117 776 q 132 683 123 705 q 158 652 141 662 q 204 643 175 643 m 204 586 q 136 592 168 586 q 80 622 104 599 q 41 686 55 644 q 27 798 27 728 q 33 884 27 844 q 57 956 39 925 q 110 1004 76 986 q 204 1023 145 1023 q 297 1004 262 1023 q 350 956 331 986 q 374 884 368 925 q 381 798 381 844 q 366 686 381 728 q 327 622 352 644 q 271 592 303 599 q 204 586 239 586 "},"Ø":{"x_min":55.640625,"x_max":774.359375,"ha":832,"o":"m 255 194 q 315 109 275 133 q 414 86 354 86 q 493 97 459 86 q 549 140 526 109 q 584 225 572 172 q 596 360 596 278 l 596 699 q 594 721 596 714 l 255 194 m 579 803 q 542 866 564 843 q 495 900 519 889 q 449 913 471 911 q 415 916 427 916 q 370 911 400 916 q 310 886 340 907 q 257 822 279 866 q 235 699 235 778 l 235 360 q 235 313 235 335 q 239 271 235 291 l 579 803 m 146 127 q 106 366 106 212 l 106 695 q 182 934 106 845 q 414 1023 258 1023 q 559 996 499 1023 q 657 924 620 970 l 726 1034 l 774 1002 l 689 870 q 724 695 724 800 l 724 366 q 647 68 724 158 q 414 -21 571 -21 q 179 74 256 -21 l 101 -45 l 55 -14 l 146 127 "},"μ":{"x_min":102,"x_max":580,"ha":681,"o":"m 466 85 l 461 85 q 388 11 434 36 q 287 -13 342 -13 q 245 -8 269 -13 q 214 0 220 -3 l 214 -265 l 102 -265 l 102 701 l 214 701 l 214 215 q 242 112 214 151 q 331 74 271 74 q 377 83 352 74 q 421 111 401 92 q 453 161 440 130 q 466 236 466 191 l 466 701 l 580 701 l 580 146 q 580 73 580 109 q 580 0 580 36 l 466 0 l 466 85 "},"÷":{"x_min":59,"x_max":623,"ha":682,"o":"m 405 558 l 277 558 l 277 702 l 405 702 l 405 558 m 405 0 l 277 0 l 277 144 l 405 144 l 405 0 m 59 394 l 623 394 l 623 308 l 59 308 l 59 394 "},"h":{"x_min":97,"x_max":583,"ha":681,"o":"m 471 0 l 471 474 q 465 533 471 506 q 445 580 460 560 q 407 610 431 599 q 348 621 384 621 q 279 606 306 621 q 236 561 252 590 q 215 495 221 533 q 209 412 209 456 l 209 0 l 97 0 l 97 1002 l 209 1002 l 209 611 l 214 611 q 290 693 248 671 q 400 715 332 715 q 536 665 489 715 q 583 497 583 616 l 583 0 l 471 0 "},".":{"x_min":87,"x_max":215,"ha":302,"o":"m 215 0 l 87 0 l 87 144 l 215 144 l 215 0 "},";":{"x_min":46.171875,"x_max":257.1875,"ha":302,"o":"m 215 557 l 87 557 l 87 701 l 215 701 l 215 557 m 116 145 l 257 145 l 133 -176 l 46 -176 l 116 145 "},"f":{"x_min":12,"x_max":369,"ha":379,"o":"m 118 701 l 118 837 q 135 922 118 890 q 179 974 152 955 q 242 998 206 992 q 315 1005 278 1005 q 345 1005 333 1005 q 369 1002 356 1005 l 369 922 q 296 915 324 922 q 254 893 269 908 q 234 859 239 879 q 230 819 230 840 l 230 701 l 369 701 l 369 615 l 230 615 l 230 0 l 118 0 l 118 615 l 12 615 l 12 701 l 118 701 "},"“":{"x_min":85.75,"x_max":518.578125,"ha":604,"o":"m 460 725 l 313 725 l 424 1001 l 518 1001 l 460 725 m 232 725 l 85 725 l 197 1001 l 291 1001 l 232 725 "},"A":{"x_min":20.421875,"x_max":811.21875,"ha":832,"o":"m 408 885 l 405 885 l 251 350 l 566 350 l 408 885 m 332 1002 l 491 1002 l 811 0 l 671 0 l 600 239 l 220 239 l 147 0 l 20 0 l 332 1002 "},"6":{"x_min":52,"x_max":556,"ha":605,"o":"m 177 312 q 181 236 177 275 q 199 163 185 196 q 239 108 213 130 q 311 86 266 86 q 373 105 349 86 q 409 158 396 124 q 426 235 422 191 q 431 325 431 278 q 426 393 431 359 q 407 455 421 427 q 369 501 394 483 q 303 520 343 520 q 236 499 262 520 q 198 448 211 479 q 181 380 185 417 q 177 312 177 343 m 304 -21 q 196 -1 239 -21 q 124 52 152 17 q 80 134 95 87 q 58 236 65 181 q 52 353 52 291 q 52 477 52 415 q 52 665 52 574 q 75 825 52 755 q 151 937 98 895 q 301 979 203 979 q 399 963 354 979 q 474 916 443 947 q 521 842 505 885 q 538 744 538 798 l 413 744 q 406 794 413 769 q 385 840 399 819 q 351 873 372 860 q 302 885 331 885 q 239 867 264 885 q 200 808 214 849 q 180 699 185 766 q 175 537 175 632 l 177 537 q 241 602 200 578 q 331 627 282 627 q 417 611 376 627 q 488 559 458 596 q 537 460 519 522 q 556 303 556 398 q 542 180 556 238 q 498 76 528 121 q 421 5 468 31 q 304 -21 373 -21 "},"‘":{"x_min":47.640625,"x_max":253.171875,"ha":302,"o":"m 194 726 l 47 726 l 159 1002 l 253 1002 l 194 726 "},"O":{"x_min":106,"x_max":724,"ha":832,"o":"m 415 86 q 493 97 459 86 q 549 140 526 109 q 584 225 572 172 q 596 360 596 278 l 596 699 q 573 822 596 778 q 520 886 551 866 q 459 911 489 907 q 415 916 429 916 q 370 911 400 916 q 309 886 340 907 q 256 822 278 866 q 234 699 234 778 l 234 360 q 245 225 234 278 q 280 140 257 172 q 336 97 303 109 q 415 86 370 86 m 415 -21 q 182 68 258 -21 q 106 366 106 158 l 106 695 q 182 934 106 845 q 415 1023 258 1023 q 647 934 571 1023 q 724 695 724 845 l 724 366 q 647 68 724 158 q 415 -21 571 -21 "},"n":{"x_min":94,"x_max":583,"ha":681,"o":"m 471 0 l 471 486 q 465 538 471 513 q 446 582 460 563 q 409 611 432 601 q 350 621 385 621 q 276 603 303 621 q 234 554 249 584 q 214 488 219 524 q 210 415 210 451 l 210 0 l 94 0 l 94 555 q 94 628 94 591 q 94 701 94 664 l 210 701 l 210 611 l 215 611 q 290 692 248 670 q 399 715 332 715 q 489 699 453 715 q 546 652 525 683 q 574 579 566 621 q 583 485 583 537 l 583 0 l 471 0 "},"3":{"x_min":34,"x_max":558,"ha":604,"o":"m 230 561 q 307 564 272 556 q 368 590 342 572 q 408 642 394 609 q 423 720 423 674 q 392 829 423 787 q 292 872 361 872 q 229 858 252 872 q 193 822 206 844 q 177 772 180 801 q 174 715 174 744 l 45 715 q 103 908 45 838 q 293 979 162 979 q 481 917 414 979 q 548 729 548 855 q 526 619 548 661 q 475 554 504 577 q 414 520 446 530 q 362 505 382 511 l 362 502 q 515 426 473 487 q 558 256 558 365 q 485 47 558 115 q 277 -21 413 -21 q 168 -3 212 -21 q 96 40 123 13 q 56 101 69 67 q 38 166 43 134 q 34 224 34 198 q 34 265 34 251 l 159 265 q 163 196 159 228 q 182 139 168 163 q 221 100 195 115 q 288 86 246 86 q 357 98 329 86 q 402 133 385 111 q 426 188 419 156 q 433 259 433 220 q 422 354 433 317 q 386 412 411 391 q 323 440 362 433 q 230 448 284 448 l 230 561 "},"9":{"x_min":49,"x_max":551,"ha":604,"o":"m 300 885 q 235 867 259 885 q 197 819 210 848 q 178 754 183 790 q 174 685 174 719 q 178 614 174 649 q 196 550 183 579 q 234 504 209 522 q 300 486 259 486 q 366 504 341 486 q 404 550 391 522 q 422 614 417 579 q 427 686 427 649 q 422 754 427 719 q 404 819 417 790 q 366 867 390 848 q 300 885 341 885 m 302 979 q 451 937 399 979 q 527 825 503 895 q 551 665 551 755 q 551 477 551 574 q 551 293 551 383 q 527 133 551 204 q 451 21 504 63 q 302 -21 398 -21 q 204 -2 248 -21 q 129 47 160 15 q 82 126 98 80 q 66 230 66 173 l 193 230 q 198 178 193 203 q 217 131 204 152 q 250 98 230 110 q 301 86 271 86 q 373 110 347 86 q 412 184 399 135 q 426 304 426 233 q 426 469 426 376 l 427 469 q 362 399 404 419 q 265 379 319 379 q 200 389 236 379 q 129 431 163 399 q 72 524 95 463 q 49 683 49 584 q 70 820 49 763 q 128 912 92 877 q 209 963 163 947 q 302 979 254 979 "},"l":{"x_min":95,"x_max":207,"ha":302,"o":"m 207 0 l 95 0 l 95 1002 l 207 1002 l 207 0 "},"¤":{"x_min":-4,"x_max":610,"ha":605,"o":"m 307 674 q 222 653 260 674 q 159 599 185 633 q 120 517 133 564 q 108 415 108 470 q 121 319 108 365 q 160 238 135 273 q 220 182 185 203 q 299 162 256 162 q 382 182 345 162 q 444 237 419 202 q 484 320 470 273 q 498 420 498 367 q 485 515 498 470 q 447 596 472 561 q 387 653 423 632 q 307 674 352 674 m 54 210 q 10 307 24 259 q -4 415 -4 356 q 9 526 -4 478 q 54 625 23 575 l 1 685 l 65 758 l 118 698 q 208 751 161 735 q 307 767 256 767 q 401 748 358 767 q 485 698 445 730 l 540 758 l 604 685 l 552 625 q 596 523 582 574 q 610 408 610 472 q 594 304 610 350 q 552 210 579 259 l 604 152 l 540 78 l 485 138 q 296 69 402 69 q 202 87 245 69 q 118 138 159 106 l 65 78 l 1 152 l 54 210 "},"4":{"x_min":34,"x_max":578,"ha":604,"o":"m 349 346 l 349 847 l 347 847 l 142 346 l 349 346 m 34 235 l 34 346 l 300 963 l 467 963 l 467 346 l 578 346 l 578 235 l 467 235 l 467 0 l 349 0 l 349 235 l 34 235 "},"p":{"x_min":108,"x_max":598,"ha":681,"o":"m 346 79 q 417 97 391 79 q 458 150 443 115 q 477 238 472 185 q 482 362 482 291 q 482 447 482 401 q 468 531 482 492 q 427 596 455 570 q 346 622 399 622 q 269 590 295 622 q 233 511 244 558 q 222 412 222 465 q 222 320 222 360 q 222 243 222 285 q 235 165 222 201 q 274 104 248 129 q 346 79 300 79 m 220 618 l 222 618 q 288 690 251 666 q 378 715 325 715 q 458 703 419 715 q 529 653 498 691 q 579 546 560 616 q 598 362 598 477 q 598 229 598 297 q 575 108 598 162 q 507 20 553 54 q 376 -14 460 -14 q 289 7 326 -14 q 224 71 252 29 l 220 71 l 220 -265 l 108 -265 l 108 701 l 220 701 l 220 618 "},"‡":{"x_min":54,"x_max":548,"ha":604,"o":"m 54 701 l 54 794 l 244 794 l 244 1002 l 356 1002 l 356 794 l 548 794 l 548 701 l 356 701 l 356 301 l 548 301 l 548 208 l 356 208 l 356 0 l 244 0 l 244 208 l 54 208 l 54 301 l 244 301 l 244 701 l 54 701 "},"à":{"x_min":88,"x_max":573.890625,"ha":680,"o":"m 326 1002 l 447 807 l 356 807 l 178 1002 l 326 1002 m 450 347 q 366 347 410 347 q 284 334 321 347 q 223 293 247 321 q 200 208 200 264 q 225 118 200 157 q 306 79 251 79 q 358 89 331 79 q 405 128 384 99 q 438 210 426 157 q 450 347 450 262 m 451 101 l 449 101 q 382 13 423 40 q 276 -14 341 -14 q 185 3 221 -14 q 127 51 149 21 q 96 125 105 82 q 88 218 88 168 q 122 344 88 298 q 209 410 156 389 q 326 432 262 432 q 449 432 390 432 q 449 502 449 467 q 438 565 449 537 q 403 611 427 593 q 334 629 379 629 q 248 594 276 629 q 225 504 220 559 l 106 504 q 165 668 106 622 q 337 715 225 715 q 448 698 404 715 q 516 653 491 681 q 552 586 542 624 q 563 504 563 548 l 563 166 q 563 82 563 124 q 573 0 563 40 l 451 0 l 451 101 "},"Ü":{"x_min":106,"x_max":724,"ha":832,"o":"m 361 1120 l 233 1120 l 233 1264 l 361 1264 l 361 1120 m 600 1120 l 472 1120 l 472 1264 l 600 1264 l 600 1120 m 106 1002 l 231 1002 l 231 360 q 243 225 231 278 q 278 140 255 172 q 335 97 301 109 q 415 86 370 86 q 494 97 459 86 q 551 140 528 109 q 586 225 574 172 q 599 360 599 278 l 599 1002 l 724 1002 l 724 366 q 647 68 724 158 q 415 -21 571 -21 q 182 68 258 -21 q 106 366 106 158 l 106 1002 "},"ó":{"x_min":79,"x_max":602,"ha":681,"o":"m 502 1002 l 324 807 l 232 807 l 354 1002 l 502 1002 m 340 79 q 412 95 384 79 q 456 148 439 112 q 478 243 472 184 q 484 388 484 302 q 474 506 484 460 q 445 576 464 551 q 399 612 426 602 q 340 621 373 621 q 281 612 307 621 q 235 576 254 602 q 206 506 216 551 q 196 388 196 460 q 202 243 196 302 q 224 148 208 184 q 268 95 241 112 q 340 79 296 79 m 340 -14 q 238 -2 286 -14 q 155 47 190 9 q 99 154 119 84 q 79 340 79 223 q 86 485 79 416 q 120 604 94 553 q 198 685 147 655 q 340 715 250 715 q 482 685 430 715 q 560 604 533 655 q 594 485 587 553 q 602 340 602 416 q 581 154 602 223 q 525 47 561 84 q 442 -2 490 9 q 340 -14 394 -14 "}}}
